<svg xmlns="http://www.w3.org/2000/svg" xmlns:xlink="http://www.w3.org/1999/xlink" width="1500" zoomAndPan="magnify" viewBox="0 0 1125 1124.99995" height="1500" preserveAspectRatio="xMidYMid meet" version="1.0"><defs><filter x="0%" y="0%" width="100%" height="100%" id="8122c31291"><feColorMatrix values="0 0 0 0 1 0 0 0 0 1 0 0 0 0 1 0 0 0 1 0" color-interpolation-filters="sRGB"/></filter><g/><clipPath id="c8523cbafa"><path d="M 0.746094 0 L 1125 0 L 1125 1125 L 0.746094 1125 Z M 0.746094 0 " clip-rule="nonzero"/></clipPath><clipPath id="ca6a40af4d"><path d="M 563.246094 0 C 252.585938 0 0.746094 251.839844 0.746094 562.5 C 0.746094 873.160156 252.585938 1125 563.246094 1125 C 873.90625 1125 1125.746094 873.160156 1125.746094 562.5 C 1125.746094 251.839844 873.90625 0 563.246094 0 Z M 563.246094 0 " clip-rule="nonzero"/></clipPath><mask id="b49d19f0df"><g filter="url(#8122c31291)"><rect x="-112.5" width="1350" fill="#000000" y="-112.499995" height="1349.99994" fill-opacity="0.11"/></g></mask><clipPath id="c0f9f101f2"><path d="M 1 2 L 899.488281 2 L 899.488281 937.796875 L 1 937.796875 Z M 1 2 " clip-rule="nonzero"/></clipPath><clipPath id="56dd120835"><rect x="0" width="900" y="0" height="938"/></clipPath></defs><g clip-path="url(#c8523cbafa)"><g clip-path="url(#ca6a40af4d)"><path fill="#10768c" d="M 0.746094 0 L 1125.746094 0 L 1125.746094 1125 L 0.746094 1125 Z M 0.746094 0 " fill-opacity="1" fill-rule="nonzero"/></g></g><g mask="url(#b49d19f0df)"><g transform="matrix(1, 0, 0, 1, 113, 187)"><g clip-path="url(#56dd120835)"><g clip-path="url(#c0f9f101f2)"><path fill="#000000" d="M 184.789062 476.226562 C 232.59375 462.230469 224.570312 478.753906 240.003906 479.84375 C 239.738281 476.800781 239.578125 473.753906 239.238281 470.726562 C 240.003906 470.730469 240.769531 470.769531 241.542969 470.839844 C 242.519531 475.335938 238.492188 484.101562 245.746094 500.519531 C 246.191406 501.210938 245.832031 501.996094 245.617188 502.710938 C 247.835938 505.550781 256.613281 516.078125 257.628906 517.460938 C 255.847656 517.535156 254.070312 517.34375 252.296875 517.421875 C 252.316406 517.597656 252.351562 517.949219 252.367188 518.121094 C 255.042969 518.898438 257.808594 519.355469 260.527344 519.96875 C 256.058594 523.675781 252.976562 521.214844 224.546875 506.222656 C 225.796875 503.652344 227.109375 501.117188 228.246094 498.492188 C 227.109375 497.894531 225.972656 497.296875 224.804688 496.789062 C 223.789062 499.183594 222.691406 501.546875 221.710938 503.960938 C 218.976562 502.644531 216.5625 500.707031 213.953125 499.148438 C 215.175781 497.148438 215.554688 495.292969 210.84375 492.398438 C 210.351562 493.972656 209.507812 495.472656 209.300781 497.121094 C 223.007812 507.945312 240.230469 520.886719 257.839844 527.34375 C 257.839844 527.34375 244.167969 544.222656 239.371094 558.453125 C 236.800781 567.796875 230.96875 575.710938 226.5 584.179688 C 239.867188 574.160156 251.234375 526.070312 261.558594 530.195312 C 337.667969 558.851562 328.933594 549.898438 359.707031 568.144531 C 358.625 568.648438 357.503906 569.082031 356.523438 569.777344 C 374.601562 566.386719 427.328125 620.863281 438.195312 635.785156 C 437.609375 635.488281 405.5 611.84375 379.003906 625.015625 C 384.0625 624.628906 405.859375 615.253906 435.050781 636.4375 C 499.273438 685.085938 433.6875 780.25 408.582031 828.777344 C 381.789062 881.289062 381.839844 912.207031 382.601562 937.851562 L 486.9375 937.851562 C 448.09375 911.796875 477.8125 851.820312 504.121094 756.507812 C 530.453125 662.257812 485.347656 680.964844 531.589844 629.355469 C 594.035156 554.492188 617.628906 596.789062 645.5625 597.445312 C 639.972656 593.011719 631.902344 602.867188 611.074219 570.421875 C 606.25 567.765625 599.367188 558.851562 580.429688 555.171875 C 577.96875 554.800781 577.832031 551.800781 576.851562 550.011719 C 572.0625 553.382812 582.058594 555.402344 555.128906 554.917969 C 560 545.445312 568.246094 545.765625 577.6875 549.324219 C 577.671875 548.78125 577.660156 548.25 577.660156 547.726562 C 573.320312 546.839844 568.960938 546.039062 564.617188 545.183594 C 566.136719 543.207031 568.34375 541.851562 570.15625 540.140625 C 570.019531 541.269531 569.894531 542.40625 569.789062 543.546875 C 570.585938 543.410156 571.394531 543.289062 572.199219 543.164062 C 571.820312 543.757812 571.429688 544.34375 571.042969 544.929688 C 583.9375 545.535156 577.371094 535.234375 584.363281 531.039062 C 635.511719 509.109375 647.8125 539.785156 670.195312 536.921875 C 640.160156 526.195312 617.03125 513.515625 589.574219 525.71875 C 580.402344 529.34375 583.679688 529.144531 579.738281 528.46875 C 579.625 528.21875 579.398438 527.710938 579.285156 527.457031 C 576.332031 529.804688 572.34375 535.988281 570.65625 535.132812 C 575.566406 524.738281 590.125 521.1875 601.773438 519.4375 C 601.546875 519.3125 601.332031 519.199219 601.125 519.085938 C 603.023438 519.621094 606.910156 518.355469 612.871094 518.359375 C 643.929688 517.175781 652.160156 533.535156 688.398438 527.820312 C 685.589844 526.941406 676.84375 527.738281 669.808594 527.152344 C 643.570312 525.378906 632.5 505.898438 579.777344 522.042969 C 579.597656 521.699219 579.429688 521.367188 579.265625 521.042969 C 580.628906 520.089844 592.1875 511.699219 595.164062 509.226562 C 589.21875 510.109375 580.839844 509.914062 570.101562 519.851562 C 565.621094 524.332031 552.023438 541.414062 551.566406 537.898438 C 568.578125 512.4375 606.523438 487.855469 633.40625 465.257812 C 645.824219 454.675781 647.484375 452.113281 650.203125 451.402344 C 655.199219 450.019531 667.640625 470.675781 669.066406 484.730469 C 669.882812 490.636719 668.675781 496.527344 668.023438 502.382812 C 668.332031 503.472656 669.296875 504.257812 669.996094 505.132812 C 669.84375 499.566406 670.519531 489.046875 670.257812 486.558594 C 669.464844 469.644531 659.699219 458.949219 657.894531 455.496094 C 692.65625 472.691406 686.976562 500.425781 698.925781 512.296875 C 685.570312 461.882812 666.132812 458.144531 653.230469 448.851562 C 657.179688 444.878906 657.117188 447.394531 680.871094 453.746094 C 681.269531 449.984375 667.640625 446.828125 660.296875 444.164062 C 661.175781 443.449219 698.515625 419.980469 739.945312 427.269531 C 758.515625 430.3125 769.054688 436.78125 789.140625 446.527344 C 797.285156 450.335938 789.230469 453.101562 801.960938 515.601562 C 802.492188 515.5 803.035156 515.40625 803.589844 515.316406 C 796.539062 494.75 797.722656 475.265625 794.785156 449.023438 C 802.058594 450.445312 809.296875 452.085938 816.597656 453.386719 C 816.652344 452.875 816.722656 452.371094 816.800781 451.875 C 790 444.324219 796.421875 451.859375 788.800781 426.769531 C 778.179688 395.210938 748.402344 377.820312 723.3125 366.171875 C 722.753906 366.042969 722.640625 365.503906 722.644531 365.03125 C 767.734375 373.234375 793.734375 393.402344 803.1875 410.78125 C 807.917969 412.996094 813.976562 425.164062 818.195312 429.648438 C 812.046875 411.109375 774.8125 355.558594 688.90625 362.15625 C 689.519531 361.117188 690.535156 360.355469 690.972656 359.214844 C 686.914062 361 685.183594 364.050781 680.253906 362.109375 C 681.535156 359.886719 685.09375 358.921875 688.988281 356.503906 C 713.410156 343.269531 713.527344 343.136719 725.902344 347.054688 C 725.316406 347.082031 712.773438 347.324219 709.898438 347.660156 C 717.800781 352.984375 727.535156 358.066406 737.085938 358.652344 C 736.375 345.535156 738.996094 344.074219 724.023438 341.546875 C 760.601562 328.015625 795.144531 341.429688 808.453125 345.042969 C 810.070312 345.417969 811.589844 346.984375 811.089844 348.75 C 807.484375 362.191406 816.078125 381.644531 818.796875 383.976562 C 821.984375 375.894531 821.238281 369.847656 819.5625 361.453125 C 825.285156 368.160156 822.140625 380.269531 821.644531 383.230469 C 836.941406 367.101562 826.445312 357.945312 821.808594 351.878906 C 847.769531 366.644531 878.640625 371.070312 899.390625 367.578125 C 897.882812 366.789062 896.054688 367.316406 894.425781 367.1875 C 866.761719 368.585938 844.304688 360.953125 822.511719 348.132812 C 812.644531 342.863281 807.621094 341.113281 806.695312 339.867188 C 819.386719 340.488281 831.082031 338.921875 841.789062 331.640625 C 841.9375 331.472656 842.230469 331.132812 842.375 330.96875 C 816.269531 341.335938 812.316406 341.324219 778.613281 332.441406 C 815.359375 315.121094 831.488281 292.136719 827.824219 247.4375 C 827.757812 247.433594 827.625 247.429688 827.554688 247.425781 C 826.472656 278.488281 823.636719 314.566406 774.792969 332.152344 C 772.863281 332.253906 753.445312 332.402344 746.335938 332.296875 C 739.089844 328.351562 686.804688 351.609375 686.21875 351.820312 C 687.324219 350.046875 695.980469 338.738281 708.222656 322.398438 C 708.425781 323.539062 708.632812 324.683594 708.84375 325.835938 C 705.964844 328.875 707.382812 328.761719 709.144531 332.378906 C 714.898438 328.09375 712.527344 328.550781 716.808594 331.871094 C 719.214844 323.335938 715.113281 323.269531 711.894531 321.996094 C 709.191406 319.535156 709.867188 320.226562 725.472656 296.316406 C 726.050781 295.828125 725.625 294.613281 724.863281 295.230469 C 710.644531 314.429688 709.867188 318.472656 706.441406 316.839844 C 699.574219 333.082031 655.328125 373.234375 642.035156 375.738281 C 606.417969 382.226562 592.171875 397.707031 587.1875 399.964844 C 594.082031 387 596.800781 374.335938 595.175781 359.988281 C 598.027344 359.511719 600.90625 359.207031 603.773438 358.816406 C 603.273438 363.671875 605.339844 367.464844 610.605469 370.335938 L 611.101562 370.308594 C 611.960938 365.019531 611.558594 361.820312 606.902344 359.109375 C 608.953125 358.777344 616.554688 357.300781 619.550781 356.546875 C 619.4375 356.414062 619.199219 356.140625 619.085938 356.007812 C 618.492188 356.066406 599.777344 357.792969 594.683594 358.144531 C 591.6875 336.882812 578.476562 334.664062 586.503906 329.996094 C 587.152344 332.941406 587.257812 335.992188 588.023438 338.914062 C 591.25 329.886719 590.703125 330.070312 591.570312 329.644531 C 591.746094 331.253906 591.132812 331.804688 589.585938 340.234375 C 594.625 337.144531 599.933594 330.285156 601.660156 323.074219 C 601.558594 322.589844 601.667969 322.171875 601.996094 321.816406 C 602.0625 321.082031 602.128906 320.355469 602.179688 319.628906 C 599.363281 320.214844 596.550781 320.863281 593.679688 321.113281 C 594.425781 319.542969 599.015625 315.203125 600.234375 314.1875 C 656.230469 263.238281 680.28125 297.867188 735.253906 249.820312 C 720.214844 259.191406 704.625 273.160156 666.816406 277.503906 C 666.773438 277.566406 666.6875 277.695312 666.644531 277.757812 C 649.914062 277.636719 625.09375 289.949219 610.921875 299.347656 C 611.453125 297.285156 613.015625 295.667969 613.890625 293.738281 C 628.472656 264.039062 632.210938 248.996094 648.960938 230.871094 C 654.058594 225.460938 690.410156 211.824219 722.125 231.15625 C 724.433594 232.453125 726.441406 234.363281 729.054688 235.074219 C 726.765625 230.917969 717.699219 226.910156 713.003906 224.898438 C 689.46875 214.566406 671.074219 221.355469 655.734375 224.273438 C 656.492188 223.054688 657.722656 222.269531 658.78125 221.332031 C 704.195312 183.683594 730.003906 209.953125 768.308594 191.976562 C 768.277344 191.90625 768.207031 191.761719 768.175781 191.683594 C 745.96875 199.589844 741.246094 196.769531 699.957031 197.597656 C 719.023438 180.921875 716.980469 187.730469 739.28125 151.304688 C 733.792969 157.183594 720.65625 186.304688 689.210938 200.433594 C 678.773438 205.171875 658.757812 209.167969 632.332031 245.644531 C 632.730469 242.117188 634.304688 228.265625 636.101562 225.179688 C 633.960938 219.746094 636.386719 209.984375 632.511719 191.960938 C 626.941406 165.398438 617.398438 154.058594 602.042969 126.371094 L 602.136719 126.128906 C 622.859375 114.25 638.238281 98.171875 648.371094 78.691406 C 647.867188 79.273438 624.003906 114.769531 601.089844 122.617188 C 593.589844 102.914062 593.367188 89.941406 592.097656 77.4375 C 591.445312 92.796875 593.382812 108.328125 598.304688 122.917969 C 588.554688 130.820312 578.898438 138.847656 569.089844 146.679688 C 583.75 112.160156 566.808594 80.390625 561.46875 75.988281 C 561.980469 79.796875 578.148438 99.296875 572.320312 129.027344 C 570.484375 139.785156 568.277344 149.886719 559.132812 156.085938 C 558.519531 156.527344 557.695312 156.832031 557.5 157.636719 C 559.117188 157.117188 560.628906 156.320312 562.234375 155.757812 C 545.910156 179.238281 535.382812 202.742188 533.496094 248.179688 C 533.945312 248.976562 532.636719 248.90625 533.101562 248.144531 C 519.210938 214.3125 528.148438 187.421875 549.78125 163.585938 C 536.53125 169.636719 528.582031 193.691406 525.320312 207.851562 C 521.265625 190.007812 509.214844 193.515625 502.621094 192.6875 C 500.421875 192.46875 482.859375 170.378906 482.402344 169.792969 C 484.066406 166.882812 493.75 157.453125 493.988281 155.699219 C 492.035156 156.9375 480.625 169.523438 480.207031 168.316406 C 478.351562 166.328125 476.515625 164.3125 474.441406 162.550781 C 470.132812 159.054688 478.15625 154.0625 478.003906 141.835938 C 476.492188 142.128906 473.125 154.503906 470.652344 157.867188 C 470.71875 154.925781 443.820312 113.566406 461.882812 64.703125 C 471.746094 38.03125 495.238281 20.445312 507.320312 2.847656 C 507.621094 0.320312 506.28125 2.507812 467.625 47.066406 C 467.515625 46.527344 467.433594 45.992188 467.351562 45.460938 C 463.59375 60.421875 449.3125 79.148438 454.644531 116.203125 C 455.074219 119.957031 446.925781 120.410156 451.011719 128.542969 C 451.535156 127.292969 451.820312 125.96875 452.335938 124.71875 C 452.484375 124.628906 452.769531 124.445312 452.917969 124.351562 C 453.003906 126.503906 452.585938 128.632812 452.589844 130.785156 C 453.917969 129.421875 455.113281 127.941406 456.375 126.515625 C 465.261719 154.023438 464.707031 151.945312 464.84375 153.03125 C 465.664062 153.007812 465.003906 154.261719 464.644531 153.425781 C 408.386719 108.6875 380.984375 96.238281 345.546875 4.378906 C 346.214844 8.511719 354.871094 43.363281 380.679688 82.628906 C 358.097656 65.992188 340.121094 63.777344 313.882812 70.242188 C 314.46875 70.289062 355.429688 60.53125 377.726562 83.59375 C 342.125 70.902344 323.121094 82.699219 320.261719 85.6875 C 328.421875 83.085938 336.433594 79.644531 345.039062 78.824219 C 361.714844 76.660156 382.421875 87.644531 383.941406 88.832031 C 383.941406 88.832031 407.8125 118.558594 435.570312 139.828125 C 446.546875 148.523438 429.117188 133.808594 467.058594 164.917969 C 457.507812 181.960938 456.855469 191.792969 452.113281 205.808594 C 452.480469 206.214844 453.332031 206.324219 453.339844 206.976562 C 454.390625 244.792969 449.683594 223.5 454.835938 242.550781 C 454.496094 242.734375 454.164062 242.929688 453.839844 243.125 C 452.628906 240.769531 451.578125 238.335938 450.320312 236.007812 C 445.226562 232.253906 436.714844 221.144531 436.355469 220.5625 C 436.941406 220.085938 448.59375 209.460938 451.449219 206.53125 C 449.847656 207.460938 449.660156 207.855469 434.605469 219.117188 C 421.847656 208.285156 420.363281 209.367188 420.289062 201.136719 C 418.640625 201.953125 417.359375 203.320312 415.761719 204.214844 C 415.175781 204.195312 394.195312 187.839844 388.785156 168.144531 C 380.9375 146.441406 399.574219 138.265625 391.863281 123.605469 C 390.324219 156.074219 369.621094 150.257812 403.214844 196.386719 C 404.378906 196.402344 403.597656 197.953125 403.085938 196.769531 C 396.632812 194.316406 398.621094 196.804688 393.035156 191.519531 C 392.703125 191.929688 392.390625 192.355469 392.078125 192.777344 C 387.964844 189.433594 373.949219 158.078125 369.464844 146.644531 C 368.972656 146.796875 368.472656 146.953125 367.992188 147.117188 C 368.320312 148.960938 375.71875 165.796875 386.011719 190.96875 C 339.226562 183.015625 350.082031 200.035156 303.828125 188.269531 C 303.285156 188.089844 302.203125 188.3125 302.519531 189.074219 C 326.457031 195.699219 326.851562 196.890625 352.59375 192.375 C 369.46875 189.644531 387.882812 193.882812 390.027344 196.449219 C 392.234375 198.90625 392.316406 202.460938 392.203125 205.589844 C 380.570312 199.113281 367.25 194.769531 354.105469 196.917969 C 377.398438 197.554688 391.191406 205.25 391.53125 208.863281 C 385.972656 208.300781 374.683594 202.269531 357.742188 207.460938 C 355.703125 208.109375 353.429688 208.621094 351.960938 210.304688 C 371.769531 204.144531 382.664062 207.582031 383.703125 208.644531 C 372.320312 208.371094 367.328125 218.609375 367.519531 226.875 C 383.691406 222.574219 381.914062 222.53125 387.53125 211.9375 C 386.628906 211.375 385.515625 211.453125 384.523438 211.203125 C 385.109375 210.671875 390.839844 210.179688 391.421875 210.128906 C 379.265625 239.046875 359.304688 246.644531 341.617188 256.144531 C 338.097656 238.824219 336.328125 240.949219 330.304688 225.378906 C 317.875 217.003906 299.15625 201.90625 298.171875 187.300781 C 297.726562 186.277344 295.679688 182.65625 295 181.808594 C 297.640625 219.695312 325.453125 211.769531 335.417969 244.753906 C 340.984375 262.597656 339.703125 255.875 315.175781 280.882812 C 311.242188 270.214844 311.367188 270.707031 310.871094 270.089844 C 310.242188 276.003906 316.660156 280.460938 311.230469 286.898438 C 294.707031 307.8125 289.226562 328.316406 282.605469 349.253906 L 282.136719 349.617188 C 278.855469 326.246094 283.964844 289.417969 291.382812 267.363281 C 291.382812 267.363281 306.089844 266.992188 306.09375 266.992188 C 305.191406 258.726562 300.761719 256.457031 292.539062 257.445312 C 300.042969 203.207031 279.179688 151.617188 275.234375 147.765625 C 284.574219 170.980469 287.777344 189.382812 289.683594 210.210938 C 275.621094 201.214844 275.457031 212.785156 273.0625 214.484375 C 273.179688 207.875 273.695312 201.277344 273.710938 194.667969 C 273.570312 194.761719 273.277344 194.957031 273.132812 195.050781 C 271.960938 202.558594 270.933594 210.101562 269.71875 217.605469 C 245.507812 188.007812 237.089844 180.238281 235.90625 159.9375 C 237.734375 158.414062 238.316406 150.992188 244.71875 146.921875 C 238.390625 157.863281 238.121094 157.800781 237.179688 159.808594 C 238.773438 159.382812 240.015625 158.214844 241.40625 157.386719 C 246.3125 153.820312 249.859375 158.800781 261.324219 138.164062 C 246.835938 135.679688 241.03125 139.980469 236.09375 148.503906 C 236.398438 134.417969 249.59375 121.503906 249.074219 110.523438 C 248.746094 111.105469 248.441406 111.707031 248.144531 112.3125 C 248.0625 112.222656 247.890625 112.039062 247.808594 111.949219 C 247.660156 100.78125 244.207031 96.996094 230.574219 100.613281 C 233.984375 107.160156 240.085938 111.730469 246.140625 115.683594 C 245.992188 113.734375 245.460938 111.84375 245.320312 109.894531 C 251.15625 113.945312 241.511719 127.628906 236.980469 134.894531 C 236.859375 134.035156 236.757812 133.179688 236.621094 132.335938 C 236.546875 132.449219 236.390625 132.683594 236.316406 132.800781 C 230.339844 170.058594 236.917969 173.613281 241.957031 187.554688 C 194.945312 154.84375 177.605469 173.539062 143.226562 151.789062 C 141.417969 151.035156 139.875 149.773438 138.089844 149 C 137.335938 148.90625 137.304688 149.851562 137.023438 150.328125 C 175.945312 169.726562 160.085938 161.394531 198.152344 170.605469 C 241.566406 181.171875 268.714844 218.335938 272.769531 233.0625 C 267.980469 230.886719 263.511719 228.019531 258.710938 225.878906 C 258.472656 226.320312 258.242188 226.765625 258.007812 227.210938 C 261.957031 229.90625 276.175781 234.449219 279.808594 248.964844 C 282.199219 260.132812 286.472656 267.324219 284.035156 275.160156 C 272.304688 328.058594 272.511719 331.335938 280.105469 381.152344 C 280.277344 381.46875 280.664062 382.230469 280.074219 382.339844 C 270.417969 371.308594 251.515625 355.230469 231.847656 343.875 C 231.859375 342.457031 233.324219 341.316406 233.753906 339.929688 C 232.460938 340.789062 231.308594 341.84375 230.128906 342.847656 C 205.824219 330.65625 209.214844 334.265625 210.394531 326.648438 C 212.113281 317.425781 212.421875 307.738281 209.910156 298.632812 C 210.292969 309.378906 210.746094 320.472656 207.128906 330.777344 C 192.566406 321.714844 178.027344 306.273438 175.867188 300.742188 C 173.214844 294.140625 167.578125 248.054688 198.433594 224.902344 C 199.941406 223.292969 202.140625 222.390625 203.308594 220.46875 C 184.898438 229.960938 168.667969 253.742188 173.375 297.050781 C 172.984375 297.132812 172.601562 297.21875 172.21875 297.316406 C 171.175781 293.6875 170.175781 290.046875 169.207031 286.398438 C 162.828125 286.734375 151.988281 254.121094 159.726562 222.964844 C 163.394531 207.339844 162.023438 190.15625 158.058594 178.566406 C 159.984375 189.636719 160.878906 201.011719 159.238281 212.175781 C 155.703125 201.480469 156.542969 200.847656 141.074219 198.835938 C 142.683594 207.792969 148.476562 216.007812 156.585938 220.222656 C 154.96875 215.507812 152.703125 211.027344 151.050781 206.324219 C 161.648438 214.078125 157.015625 224.460938 153.164062 248.125 C 153.46875 249.042969 152.3125 248.886719 152.375 248.097656 C 145.210938 231.972656 133.492188 219.007812 119.949219 207.394531 C 120.136719 209.011719 121.351562 210.183594 122.476562 211.242188 C 131.402344 219.519531 139.648438 228.671875 145.949219 239.136719 C 149.722656 245.058594 143.976562 244.789062 143.335938 249.988281 C 142.8125 253.175781 145.097656 255.976562 147.59375 257.628906 C 146.878906 253.703125 145.136719 252.699219 147.457031 249.644531 C 149.050781 256.726562 148.953125 257.054688 149.539062 257.402344 C 150.578125 257.238281 150.507812 256.253906 151.777344 252.386719 C 152.722656 254.710938 163.046875 289.023438 163.402344 290.210938 C 159.871094 294.851562 159.199219 300.339844 164.085938 304.082031 C 164.699219 300.910156 164.476562 297.65625 164.84375 294.460938 C 165.03125 294.449219 165.402344 294.429688 165.582031 294.417969 C 166.089844 298.253906 166.296875 302.128906 166.800781 305.972656 C 167.152344 305.921875 167.507812 305.875 167.867188 305.835938 C 168.566406 304.335938 169.144531 302.785156 169.816406 301.277344 C 171.058594 302.429688 193.363281 326.789062 193.914062 327.738281 C 186.234375 327.46875 180.320312 320.8125 178.5 319.914062 C 179.902344 321.464844 181.4375 322.898438 182.757812 324.523438 C 168.824219 322.925781 153.394531 321.046875 152.808594 320.953125 C 155.285156 318.480469 159.765625 314.90625 162.851562 312.222656 C 163.546875 311.953125 163.589844 310.652344 162.714844 310.78125 C 153.855469 313.253906 149.652344 314.730469 148.503906 314.722656 C 148.410156 314.523438 148.222656 314.117188 148.128906 313.910156 C 152.664062 312.1875 157.214844 310.492188 161.757812 308.773438 C 161.769531 308.320312 161.789062 307.871094 161.808594 307.425781 C 155.335938 307.316406 147.921875 303.769531 140.792969 314.652344 C 136.613281 320.566406 138.390625 321.503906 132.664062 322.257812 C 82.511719 327.511719 86.410156 350.566406 1.097656 339.835938 C 22.824219 346.683594 44.644531 345.6875 47.453125 345.957031 C 45.453125 347.226562 43.191406 348.03125 41.195312 349.324219 C 32.085938 354.542969 24.339844 363.1875 24.667969 364.65625 C 25.898438 364.398438 26.527344 363.214844 27.359375 362.402344 C 47.445312 340.117188 61.289062 348.28125 92.300781 336.867188 C 121.707031 325.503906 152.039062 322.558594 184.367188 330.859375 C 191.820312 332.332031 192.835938 336.242188 198.683594 344 C 199.042969 343.75 199.40625 343.503906 199.773438 343.261719 C 197.453125 339.835938 195.15625 336.394531 192.773438 333.015625 C 208.421875 338.382812 205.972656 334.328125 204.699219 353.140625 C 200.125 343.652344 200.882812 345.183594 199.546875 345.472656 C 199.679688 346.058594 213.101562 389.09375 218.558594 391.308594 C 219.050781 390.578125 219.640625 391.855469 210.425781 371.222656 C 213.71875 371.300781 217.007812 371.511719 220.300781 371.652344 C 220.394531 378.53125 220.746094 385.402344 220.804688 392.28125 C 220.179688 392.410156 219.441406 392.3125 218.914062 392.726562 C 216.53125 396.023438 231.820312 410.617188 238.445312 418.03125 C 225.484375 416.128906 212.523438 414.199219 199.578125 412.210938 C 199.472656 409.125 198.339844 379.300781 197.050781 376.425781 C 196.964844 376.613281 196.792969 376.996094 196.703125 377.191406 C 196.671875 382.742188 197.796875 409.34375 197.566406 413.5625 C 162.195312 414.1875 151.054688 427.757812 119.992188 431.601562 C 120.171875 431.671875 120.535156 431.816406 120.71875 431.886719 C 119.3125 431.542969 117.882812 431.847656 116.472656 431.984375 C 101.121094 433.125 94.398438 431.660156 83.925781 431.164062 C 83.960938 431.449219 84.035156 432.027344 84.074219 432.3125 C 97.007812 433.519531 112.832031 434.425781 113.773438 434.964844 C 109.460938 436.757812 105.324219 439.121094 101.886719 442.308594 C 106.917969 439.492188 111.40625 435.683594 129.4375 432.460938 C 195.617188 420.601562 124.417969 412.285156 229.464844 462.585938 C 230.789062 463.207031 229.367188 462.378906 232.5 464.195312 C 124 475.09375 151.730469 512.273438 92.726562 507.261719 C 110.511719 513.238281 126.5625 504.355469 127.929688 503.851562 C 128.003906 503.007812 129.210938 503.667969 128.304688 504.03125 C 104.585938 537.039062 93.445312 559.464844 59.707031 576.671875 C 58.835938 577.246094 57.617188 577.488281 57.113281 578.492188 C 59.375 578.601562 76.605469 569.976562 90.824219 557.445312 C 114.992188 537.285156 124.5 493.945312 184.789062 476.226562 Z M 279.449219 235.238281 C 282.242188 235.1875 285.75 238.140625 288.199219 233.304688 C 286.191406 232.285156 287.59375 232.882812 285.554688 232.03125 L 285.574219 232.011719 C 285.460938 231.902344 285.226562 231.683594 285.113281 231.578125 C 284.21875 231.410156 283.328125 230.875 282.628906 230.347656 L 282.300781 230.496094 L 281.945312 230.285156 L 281.933594 229.941406 C 268.746094 227.777344 275.347656 216.324219 276.132812 214.132812 C 276.25 214.160156 276.484375 214.21875 276.597656 214.246094 C 276.230469 216.878906 274.957031 219.425781 275.21875 222.109375 C 276.65625 221.730469 275.242188 222.671875 285.050781 216.460938 L 285.464844 216.347656 C 285.585938 216.234375 285.820312 216.011719 285.9375 215.902344 L 285.894531 215.84375 C 286.09375 215.796875 286.484375 215.707031 286.679688 215.660156 L 286.738281 215.3125 C 287.722656 214.921875 288.546875 214.242188 289.65625 213.738281 C 290.6875 228.121094 289.804688 242.574219 287.703125 256.824219 C 284.863281 249.667969 282.164062 242.445312 279.449219 235.238281 Z M 244.664062 471.222656 C 244.804688 472.933594 244.402344 474.632812 244.402344 476.347656 C 251.347656 477.128906 241.847656 464.824219 288.953125 481.390625 L 289.003906 481.71875 C 291.019531 482.125 304.96875 495.34375 309.402344 497.777344 C 311.375 498.960938 313.589844 499.722656 315.511719 500.996094 C 294.714844 505.671875 288.164062 505.75 267.910156 519.53125 C 258.59375 526.585938 235.113281 481.269531 244.664062 471.222656 Z M 307.890625 432.867188 C 296.609375 417.621094 316.042969 352.527344 319.886719 353.085938 C 313.367188 386.410156 308.824219 394.792969 308.070312 422.246094 C 307.886719 425.78125 308.253906 429.351562 307.890625 432.867188 Z M 317.488281 385.847656 C 320.425781 390.339844 322.933594 395.117188 325.78125 399.671875 C 326.222656 399.59375 326.671875 399.523438 327.125 399.460938 C 326.660156 394.273438 325.980469 389.109375 325.578125 383.914062 L 326.0625 384.167969 C 330.492188 397.765625 329.039062 398.621094 314.066406 437.191406 C 312.285156 420.035156 313.960938 402.675781 317.488281 385.847656 Z M 371.59375 291.136719 L 371.9375 290.898438 L 372.277344 291.023438 C 380.246094 285.53125 392.121094 282.882812 401.183594 278.054688 L 401.566406 278.050781 L 401.574219 277.714844 C 401.753906 277.695312 402.105469 277.660156 402.28125 277.640625 C 402.800781 277.210938 407.050781 274.921875 407.523438 274.898438 L 407.539062 274.546875 L 407.890625 274.335938 L 408.214844 274.484375 C 410.023438 273.300781 420.777344 267.097656 421.363281 267.03125 L 421.34375 266.679688 L 421.679688 266.433594 L 422.019531 266.550781 C 422.683594 266.027344 428.605469 262.410156 429.230469 262.242188 L 429.300781 261.898438 C 430.332031 261.511719 432.292969 260.214844 433.910156 259.257812 C 433.457031 258.574219 433.023438 257.886719 432.621094 257.183594 C 434.171875 255.714844 435.726562 254.253906 437.199219 252.707031 C 437.785156 253.066406 453.042969 264.652344 453.660156 265.410156 C 461.800781 270.207031 463.082031 272.96875 469.925781 289.1875 C 454.414062 281.066406 454.234375 285.824219 451.292969 285.984375 L 451.292969 286.328125 L 450.9375 286.554688 L 450.597656 286.414062 C 434.234375 298.085938 456.21875 284.6875 392.492188 292.515625 C 389.742188 293.011719 372.03125 294.15625 368.664062 293.011719 C 369.601562 292.445312 370.515625 291.675781 371.605469 291.484375 Z M 471.324219 291.617188 C 473.707031 295.65625 476.132812 299.671875 478.496094 303.730469 C 475.425781 302.578125 472.378906 301.253906 469.457031 299.804688 C 469.28125 299.785156 468.933594 299.746094 468.761719 299.726562 L 468.761719 299.382812 C 467.714844 299.34375 466.761719 298.734375 465.867188 298.257812 C 465.695312 298.238281 465.351562 298.199219 465.183594 298.175781 L 465.1875 297.84375 C 464.078125 297.761719 463.03125 297.09375 462.042969 296.613281 L 462.066406 296.355469 C 463.007812 295.914062 468.464844 292.847656 469.878906 291.605469 C 469.292969 291.53125 456.339844 289.667969 455.882812 289.296875 C 459.914062 287.90625 464.726562 287.992188 468.367188 290.265625 L 468.695312 290.117188 L 469.054688 290.335938 L 469.070312 290.691406 C 469.535156 290.691406 469.941406 290.828125 470.296875 291.101562 L 470.644531 290.949219 L 471.023438 291.15625 L 471.035156 291.503906 Z M 471.074219 280.472656 C 483.429688 291.488281 495.40625 306.296875 504.222656 320.355469 C 502.46875 319.714844 500.933594 318.558594 499.578125 317.917969 L 499.550781 317.574219 C 489.253906 315.578125 474.921875 288.007812 471.074219 280.472656 Z M 370.792969 296.296875 C 373.269531 296.707031 375.800781 296.246094 378.277344 296.589844 C 381.019531 297.359375 381.800781 302.402344 384.164062 304.082031 C 383.125 301.695312 381.929688 299.375 380.925781 296.976562 C 381.328125 296.625 396.3125 295.347656 396.84375 295.308594 C 409.910156 293.652344 404.121094 294.824219 407.480469 295.453125 C 413.277344 292.488281 415.957031 294.332031 428.992188 294.1875 L 429.179688 294.539062 C 439.632812 294.566406 438.789062 295.105469 440.277344 296.207031 C 449.152344 296.554688 461.417969 301.28125 465.457031 302.980469 L 465.492188 303.316406 L 465.910156 303.246094 C 485.535156 311.6875 502.121094 325.132812 507.390625 330.347656 C 500.589844 338.34375 506.316406 332.328125 495.320312 344.253906 C 483.515625 335.886719 459.941406 320.167969 458.988281 318.667969 C 458.230469 317.527344 458.160156 315.734375 456.507812 315.726562 L 456.523438 315.703125 C 456.332031 315.640625 455.960938 315.519531 455.777344 315.460938 L 455.765625 315.167969 L 455.285156 315.148438 C 450.09375 310.523438 449.316406 308.675781 446.976562 306.953125 C 457.332031 325.507812 489.359375 343.492188 490.722656 344 L 490.796875 344.34375 C 492.257812 345.070312 493.566406 346.140625 494.851562 347.160156 C 485.667969 365.578125 484.296875 384.386719 489.929688 403.199219 C 484.269531 397.792969 485.515625 388.507812 443.125 358.804688 C 436.03125 354.269531 443.175781 338.175781 422.84375 339.542969 C 423.464844 339.125 428.988281 336.5625 429.628906 336.472656 L 429.644531 336.125 C 429.8125 336.113281 430.160156 336.082031 430.335938 336.070312 C 433.765625 333.734375 437.527344 333.789062 455.355469 319.140625 C 455.179688 318.964844 455.007812 318.796875 454.84375 318.640625 C 453.460938 319.667969 452.039062 320.832031 450.46875 321.46875 L 450.492188 321.824219 L 450.164062 322.074219 L 449.824219 321.960938 C 448.808594 322.820312 440.382812 328.6875 436.300781 330.496094 C 442.621094 321.398438 441.484375 313.585938 434.265625 307.398438 C 424.484375 327.191406 432.5 328.777344 432.773438 332.117188 C 431.808594 332.460938 431.003906 333.300781 429.980469 333.398438 L 429.914062 333.738281 C 414.683594 339.09375 415.347656 338.601562 415.347656 338.601562 C 414.761719 338.386719 399.585938 329.609375 405.933594 323.457031 C 405.964844 323.054688 406.011719 322.671875 406.050781 322.285156 C 405.867188 322.640625 405.707031 323.003906 405.5625 323.378906 C 404.488281 324.625 404.230469 326.398438 403.351562 327.804688 C 401.96875 327.066406 401.011719 325.726562 399.597656 325.039062 C 402.503906 332.261719 406.550781 332.851562 413.390625 339.09375 C 406.023438 340.890625 398.664062 342.722656 391.324219 344.621094 C 394.484375 340.230469 399.652344 334.65625 401.578125 331.625 C 400.800781 332.25 389.914062 343 389.335938 343.585938 L 388.945312 343.617188 L 388.910156 343.953125 C 388.722656 343.957031 388.34375 343.96875 388.152344 343.972656 C 379.046875 351.214844 386.613281 345.523438 374.65625 352.289062 L 374.28125 352.320312 L 374.285156 352.671875 L 373.9375 352.902344 L 373.601562 352.765625 C 345.339844 373.914062 357.527344 361.847656 333.714844 390.632812 C 333.136719 384.375 333.480469 378.53125 323.449219 371.554688 C 320.875 369.855469 321.414062 368.722656 323.761719 349.117188 C 327.046875 326.332031 356.304688 300.425781 362.914062 297.015625 L 362.949219 296.660156 C 367.308594 294.53125 368.183594 296.109375 370.792969 296.296875 Z M 536.789062 432.035156 C 537.191406 381.25 507.492188 363.769531 511.054688 348.710938 C 511.152344 348.761719 511.355469 348.867188 511.457031 348.917969 C 511.882812 351.863281 512.097656 354.835938 512.449219 357.792969 C 512.78125 357.8125 513.449219 357.847656 513.785156 357.867188 C 515.078125 354.707031 516.371094 351.542969 517.609375 348.359375 C 517.496094 334.5625 543.589844 416.339844 536.789062 432.035156 Z M 523.222656 325.695312 C 525.394531 325.738281 527.558594 325.464844 529.730469 325.632812 C 530.621094 332.101562 529.253906 338.5625 529.179688 345.035156 C 529.097656 345.105469 528.921875 345.253906 528.835938 345.328125 C 523.039062 341.164062 522.953125 333.140625 523.222656 325.695312 Z M 535.074219 364.464844 C 540.632812 370.699219 538.699219 375.082031 537.0625 376.441406 C 536.476562 372.4375 535.585938 368.472656 535.074219 364.464844 Z M 506.414062 446.597656 C 511.84375 453.539062 512.824219 454.003906 522.269531 475.195312 C 523.644531 478.742188 522.136719 478.722656 505.136719 502.726562 C 509.753906 457.066406 506.402344 452.402344 506.414062 446.597656 Z M 526.605469 517.746094 C 529.175781 533.242188 514.445312 555.703125 504.300781 567.929688 C 504.476562 557.921875 526.019531 518.28125 526.605469 517.746094 Z M 525.347656 472.691406 C 525.347656 472.691406 519.324219 458.636719 510.113281 446.699219 C 506.5625 441.90625 500.101562 436.699219 502.175781 427.308594 L 502.570312 426.929688 C 502.546875 426.664062 502.496094 426.140625 502.464844 425.878906 C 501.941406 426.273438 501.382812 426.621094 500.808594 426.9375 C 500.296875 426.34375 477.722656 384.945312 496.214844 347.632812 C 499.25 350.960938 511.769531 365.039062 514.433594 367.875 C 514.335938 368.207031 514.246094 368.546875 514.167969 368.894531 C 496.757812 369.804688 487.050781 377.125 491.101562 394.148438 C 491.183594 394.261719 491.351562 394.492188 491.4375 394.601562 C 492.722656 389.003906 495.160156 383.125 500.210938 379.945312 C 497.027344 383.902344 493.839844 388.226562 493.1875 393.410156 C 494.488281 393.101562 495.5 392.007812 496.824219 391.808594 L 496.808594 391.464844 L 497.148438 391.234375 L 497.496094 391.359375 C 498.742188 390.585938 500.097656 389.691406 501.53125 389.390625 L 501.546875 389.046875 L 501.910156 388.839844 L 502.242188 388.988281 C 510.789062 383.578125 510.3125 382.320312 514.863281 374.414062 C 515.464844 373.441406 515.816406 371.933594 517.246094 372.023438 C 529.589844 403.546875 527.105469 393.046875 526.78125 398.839844 C 527.347656 399.570312 528.238281 400.050781 528.644531 400.925781 C 530.789062 415.335938 537.710938 443.296875 525.347656 472.691406 Z M 501.46875 504.449219 C 498.941406 501.601562 495.054688 492.378906 496.628906 487.894531 C 490.613281 481.011719 490.738281 471.363281 489.878906 463.304688 C 490.550781 463.429688 491.183594 463.695312 491.726562 464.144531 C 492.089844 464.289062 491.746094 464.199219 492.847656 464.398438 C 487.449219 459.46875 493.875 440.46875 495.613281 437.625 C 506.886719 433.105469 504.410156 487.636719 504.132812 490.957031 C 495.886719 468.679688 496.738281 468.308594 493.171875 466.058594 C 500.984375 478.242188 502.832031 490.230469 501.46875 504.449219 Z M 453.332031 458.839844 C 454.839844 456.671875 456.496094 454.609375 458.082031 452.492188 L 458.085938 452.210938 C 458.257812 452.214844 458.597656 452.226562 458.765625 452.230469 L 458.757812 452.539062 C 468.984375 459.019531 477.925781 468.40625 482.488281 475.339844 C 475.859375 468.96875 470.605469 466.167969 465.515625 463.28125 L 465.171875 463.414062 L 464.824219 463.179688 L 464.832031 462.832031 C 464.832031 462.832031 458.886719 460.441406 453.332031 458.839844 Z M 424.929688 459.515625 C 425.320312 459.035156 426.546875 458.988281 427.1875 459.203125 C 428.839844 457.761719 448.605469 457.957031 449.742188 459.726562 C 441.117188 481.167969 437.988281 482.066406 441.269531 515.296875 C 427.890625 498.480469 424.195312 494.894531 426.296875 485.585938 C 424.390625 486.472656 426.40625 485.738281 420.128906 490.632812 C 407.851562 482.023438 399.769531 473.316406 396.015625 467.519531 C 395.992188 466.585938 397.3125 466.972656 397.871094 466.667969 C 397.570312 466.0625 396.78125 466.097656 396.402344 465.644531 C 396.226562 465.640625 395.878906 465.628906 395.699219 465.625 L 395.671875 465.289062 C 392.394531 465.4375 385.71875 451.75 383.007812 448.921875 C 386.296875 463.125 403.855469 484.175781 412.472656 494.957031 C 398.53125 506.648438 407.085938 523.800781 414.28125 528.84375 C 413.246094 524.027344 410.632812 514.550781 415.636719 506.375 C 413.347656 514.507812 413.910156 523.546875 417.730469 531.136719 C 420.773438 524.21875 423.578125 517.191406 426.472656 510.203125 C 427.828125 511.535156 438.210938 525.679688 444.589844 544.617188 C 444.542969 544.578125 440.984375 541.511719 440.957031 541.488281 C 440.792969 541.453125 440.464844 541.378906 440.300781 541.339844 L 440.339844 541 C 440.339844 541 435.113281 537.65625 423.28125 538.691406 C 419.378906 539.03125 392.925781 516.113281 390.96875 514.371094 C 378.746094 503.488281 362.507812 503.375 361.644531 477.871094 C 361.796875 471.765625 360.066406 465.332031 362.648438 459.511719 C 362.921875 458.578125 363.808594 457.871094 363.894531 456.90625 C 352.828125 472.390625 363.660156 478.074219 357.222656 492.402344 C 355.980469 492.054688 354.910156 491.511719 353.46875 490.890625 L 353.425781 490.539062 L 353.046875 490.601562 C 307.417969 462.082031 337.082031 418.261719 337.964844 395.371094 C 338.773438 388.433594 350.730469 374.804688 360.59375 366.363281 C 369.375 376.351562 379.910156 377.351562 381.996094 377.0625 C 381.984375 377.144531 381.96875 377.300781 381.957031 377.378906 C 384.046875 377.542969 386.140625 377.644531 388.230469 377.839844 C 388.507812 377.429688 388.738281 376.992188 388.878906 376.519531 C 387.609375 375.765625 377.371094 369.472656 376.324219 368.597656 C 384.085938 370.238281 387.894531 374.976562 390.121094 376.445312 C 388.59375 362.308594 378.222656 362.023438 364.113281 363.960938 C 364.902344 362.808594 368.289062 360.160156 368.875 360.238281 L 368.835938 359.898438 C 369 359.855469 369.316406 359.773438 369.476562 359.734375 L 369.503906 359.53125 C 371.414062 358.460938 373.109375 356.917969 375.152344 356.15625 C 375.261719 356.042969 375.488281 355.816406 375.601562 355.699219 L 375.550781 355.640625 C 375.757812 355.605469 376.164062 355.539062 376.363281 355.503906 L 376.347656 355.144531 L 376.691406 354.910156 L 377.035156 355.042969 C 385.71875 349.753906 399.5 345.292969 404.628906 344.226562 C 404.609375 344.140625 404.570312 343.964844 404.550781 343.878906 C 406.851562 343.984375 409.015625 342.789062 411.320312 342.636719 C 411.300781 342.550781 411.253906 342.386719 411.230469 342.304688 C 418.121094 343.183594 410.226562 338.105469 426.859375 349.691406 C 430.785156 348.546875 431.242188 346.679688 435.542969 349.203125 C 433.78125 351.234375 432.246094 351.675781 430.707031 352.214844 C 436.839844 357.125 460.144531 370.0625 475.617188 388.109375 C 475.527344 388.496094 475.347656 388.851562 475.125 389.1875 C 470.425781 388.261719 460.414062 379.101562 454.25 377.953125 C 454.21875 378.214844 454.15625 378.738281 454.128906 379 C 455.8125 379.847656 457.5 380.707031 459.144531 381.628906 C 459.175781 381.828125 459.238281 382.226562 459.265625 382.421875 L 458.742188 382.332031 L 458.742188 382.613281 C 458.558594 382.667969 458.175781 382.777344 457.992188 382.828125 L 458.007812 382.851562 C 449.441406 386.179688 451.714844 387.144531 452.308594 396.90625 C 453.347656 394.570312 453.839844 392.007812 454.628906 389.578125 L 455.28125 389.039062 C 454.796875 391.761719 454.070312 394.445312 453.6875 397.183594 C 458.460938 394.410156 461.21875 388.574219 462.425781 383.152344 C 463.011719 383.589844 467.238281 386.71875 468.648438 387.496094 L 468.652344 387.839844 C 470.097656 388.425781 471.492188 389.550781 472.671875 390.617188 C 459.144531 401.902344 468.882812 413.496094 472.992188 416.136719 L 473.546875 416.316406 C 473.375 415.730469 469.585938 403.96875 472.203125 401.988281 C 473.074219 406.984375 473.839844 411.996094 474.667969 417 C 475.34375 417.066406 476.03125 417.136719 476.726562 417.199219 C 478.253906 411.109375 479.695312 404.992188 481.121094 398.875 C 488.96875 404.695312 501.300781 427.375 496.628906 432.0625 L 496.675781 432.363281 C 496.507812 432.382812 496.175781 432.421875 496.003906 432.441406 L 495.96875 432.136719 C 493.601562 431.019531 490.910156 429.113281 489.339844 428.488281 L 489.296875 428.152344 C 486.765625 427.449219 478.777344 421.460938 475.507812 419.761719 C 465.949219 414.4375 458.339844 403.019531 454.214844 400.539062 C 463.394531 416.976562 484.375 428.023438 484.960938 428.433594 C 485.132812 428.460938 485.472656 428.519531 485.640625 428.546875 L 485.636719 428.886719 C 486.269531 428.769531 486.765625 429.28125 487.277344 429.585938 C 482.949219 429.933594 478.589844 429.367188 474.253906 429.34375 L 474.410156 429.324219 L 474.082031 428.792969 L 474.414062 428.796875 C 474.417969 428.160156 474.5 427.535156 474.628906 426.925781 C 474.449219 427.035156 474.082031 427.257812 473.894531 427.371094 L 474.015625 427.71875 L 473.765625 428.058594 L 473.410156 428.035156 C 473.273438 428.914062 467.300781 437.195312 458.746094 450.308594 C 458.46875 450.152344 451.371094 445.332031 450.675781 444.878906 C 452.550781 443.121094 454.730469 441.710938 456.535156 439.871094 C 456.222656 439.410156 456.210938 438.949219 456.492188 438.484375 C 453.539062 435.535156 448.449219 435.308594 443.75 439.066406 C 441.300781 440.492188 437.898438 435.351562 424.078125 425.9375 C 422.9375 426.9375 422.78125 426.515625 441.90625 440.875 C 441.4375 442.027344 440.941406 443.171875 440.640625 444.386719 C 443.457031 444.03125 446.542969 444.441406 449.019531 445.828125 C 449.195312 445.847656 449.542969 445.886719 449.714844 445.910156 L 449.71875 446.25 C 452.359375 447.207031 454.523438 449.324219 456.769531 451.015625 C 455.972656 452.695312 453.53125 456.566406 451.707031 456.625 L 451.644531 456.957031 C 445.453125 459.0625 436.839844 455.398438 423.25 459.609375 C 423.804688 459.519531 424.359375 459.488281 424.929688 459.515625 Z M 447.328125 552.648438 C 448.355469 552.894531 448.167969 565.105469 448.125 565.730469 C 448.066406 565.707031 447.957031 565.671875 447.902344 565.65625 C 444.832031 562.726562 442.058594 559.417969 439.171875 556.28125 C 441.289062 556.585938 443.332031 557.582031 445.476562 557.527344 C 445.53125 557.464844 445.640625 557.34375 445.695312 557.28125 C 445.691406 557.066406 445.671875 556.628906 445.664062 556.410156 C 445.589844 556.289062 435.722656 546.714844 435.617188 546.613281 C 442.777344 549.914062 445.410156 555.332031 447.679688 556.859375 C 447.535156 555.453125 447.207031 554.058594 447.328125 552.648438 Z M 366.234375 497.945312 C 365.183594 497.492188 359.042969 493.953125 358.570312 493.597656 C 359.261719 491.371094 359.925781 489.140625 360.632812 486.925781 C 361.015625 487.71875 363.765625 493.203125 366.234375 497.945312 Z M 345.382812 520.113281 C 347.605469 517.691406 349.070312 514.707031 351.265625 512.277344 C 351.355469 513.726562 351.847656 531.121094 351.769531 532.578125 C 351.71875 532.554688 351.613281 532.507812 351.5625 532.480469 C 348.542969 528.5 344.433594 524.675781 344.285156 519.3125 C 344.5625 519.511719 345.109375 519.910156 345.382812 520.113281 Z M 341.347656 517.738281 C 339.023438 514.210938 337.019531 510.457031 334.910156 506.796875 C 338.363281 507.199219 341.792969 507.746094 345.242188 508.183594 C 344.195312 511.445312 342.539062 514.511719 341.347656 517.738281 Z M 327.660156 462.824219 C 327.5 462.804688 327.191406 462.769531 327.039062 462.75 C 319.078125 451.363281 318.269531 450.972656 318.300781 449.015625 C 319.359375 429.144531 332.300781 400.839844 336.703125 396.476562 C 334.152344 427.613281 320.28125 415.65625 327.660156 462.824219 Z M 328.8125 478.132812 C 321.078125 476.726562 319.761719 473.21875 319.265625 465.277344 C 322.601562 469.429688 325.648438 473.835938 328.8125 478.132812 Z M 423.203125 345.175781 C 421.394531 343.757812 419.457031 342.492188 417.738281 340.964844 C 419.078125 340.648438 420.394531 340.234375 421.730469 339.878906 C 424.035156 340.636719 425.597656 341.449219 429.613281 342.917969 C 429.570312 343.167969 429.496094 343.664062 429.457031 343.914062 C 427.871094 343.640625 424.519531 341.703125 422.394531 341.097656 C 422.621094 342.464844 422.949219 343.8125 423.203125 345.175781 Z M 460.046875 450.40625 C 460.949219 449.652344 461.828125 448.640625 463.078125 448.539062 C 464.1875 447.636719 468.667969 448.335938 472.191406 448.136719 C 473.414062 446.574219 475.09375 445.25 476.964844 444.621094 C 477.0625 444.5 477.257812 444.253906 477.355469 444.132812 C 477.566406 444.066406 478 443.929688 478.21875 443.855469 L 478.277344 443.511719 C 479.464844 443.054688 487.238281 438.363281 487.707031 438.375 L 487.695312 438.03125 L 488.035156 437.796875 L 488.375 437.917969 C 489.558594 436.898438 491.140625 436.335938 492.425781 435.394531 C 484.105469 433.246094 477.710938 436.628906 475.445312 437.070312 C 476.742188 436.277344 478 435.421875 479.347656 434.71875 L 479.46875 434.769531 C 482.402344 433.519531 485.671875 432.933594 488.851562 433.277344 C 496.289062 434.839844 498.019531 431.496094 488.503906 458.164062 C 487 460.339844 489.953125 474.546875 491.074219 482.253906 C 490.398438 482.03125 490.113281 481.402344 489.699219 480.917969 C 474.257812 461.136719 460.050781 450.410156 460.046875 450.40625 Z M 520.925781 319.140625 C 521.039062 319.1875 521.25 319.269531 521.355469 319.3125 C 521.492188 325.167969 521.671875 331.023438 521.820312 336.882812 C 513.9375 323.632812 513.84375 324.542969 520.925781 319.140625 Z M 513.546875 322.582031 C 513.386719 320.703125 512.894531 318.859375 512.871094 316.96875 L 513.425781 317.050781 C 513.765625 318.003906 513.820312 319.039062 514.101562 320.023438 C 516.164062 318.804688 517.945312 317.203125 519.996094 315.980469 C 517.949219 318.253906 515.808594 320.5 513.546875 322.582031 Z M 512.941406 336.257812 L 513.253906 336.214844 C 513.289062 336.382812 513.363281 336.707031 513.402344 336.875 L 513.117188 336.914062 C 504.125 342.914062 505.480469 344.363281 509.222656 356.667969 C 505.5625 353.195312 499.847656 346.558594 498.171875 344.476562 C 501.011719 338.613281 499.992188 338.925781 506.382812 333.808594 C 507.1875 333.164062 507.78125 331.96875 508.871094 331.824219 C 509.183594 332.242188 512.753906 335.808594 512.941406 336.257812 Z M 316.628906 492.488281 L 316.667969 492.820312 C 318.824219 493.730469 320.867188 495.199219 322.546875 496.84375 C 314.234375 495.011719 305.96875 491.640625 299.664062 485.78125 C 308.664062 488.269531 315.511719 492.066406 316.628906 492.488281 Z M 340.742188 542.238281 C 340.566406 542.234375 340.203125 542.21875 340.023438 542.210938 L 340 541.875 C 338.894531 541.734375 337.730469 541.222656 336.796875 540.65625 C 336.617188 540.644531 336.265625 540.625 336.09375 540.617188 L 336.082031 540.28125 C 336.082031 540.28125 331.59375 538.621094 328.921875 538.257812 C 329.449219 538.207031 330 538.1875 330.507812 537.988281 C 330.507812 537.988281 326.617188 537.554688 316.140625 538.824219 C 316.296875 537.707031 316.515625 536.613281 316.648438 535.5 C 306.609375 532.640625 278.296875 530.144531 277.378906 527.332031 C 278.453125 521.914062 279.390625 520.949219 277.472656 518.992188 C 273.453125 516.988281 273.21875 524.625 273.125 525.210938 C 271.648438 525.066406 271.347656 524.410156 268.175781 523.261719 L 268.121094 522.910156 L 267.410156 522.917969 C 267.804688 521.929688 277.507812 515.574219 278.378906 515.730469 L 278.421875 515.390625 C 279.007812 515.152344 295.03125 507.257812 308.679688 506.09375 C 308.652344 506.007812 308.589844 505.839844 308.5625 505.757812 C 310.855469 505.921875 313.144531 505.296875 315.445312 505.234375 C 315.230469 505.101562 315.011719 504.976562 314.800781 504.859375 C 327.59375 507.210938 322.960938 498.378906 332.378906 515.605469 C 333.042969 516.488281 333.320312 517.703125 334.128906 518.449219 C 335.164062 518.539062 336.121094 517.839844 337.15625 517.71875 C 339.929688 532.304688 351.511719 542.476562 353.210938 547.007812 C 352.710938 546.832031 341.085938 542.644531 340.742188 542.238281 Z M 353.214844 513.441406 C 354.171875 513.902344 354.753906 514.300781 358.523438 516.992188 C 353.746094 520.453125 354.984375 521.53125 353.578125 528.035156 C 353.5 523.171875 353.335938 518.308594 353.214844 513.441406 Z M 366.011719 556.316406 C 367.082031 555.375 368.441406 554.84375 369.503906 553.886719 C 363.207031 547.59375 354.355469 538.507812 353.78125 529.601562 C 354.382812 529.957031 354.964844 530.339844 355.539062 530.757812 C 356.359375 528.726562 356.828125 526.574219 357.496094 524.496094 C 357.597656 524.511719 357.804688 524.539062 357.910156 524.550781 C 356.6875 534.890625 356.535156 533.546875 358.082031 533.976562 C 360.789062 530.28125 363.636719 526.679688 366.28125 522.945312 C 378.644531 530.28125 368.941406 530.171875 376.429688 534.503906 C 378.03125 535.363281 379.945312 535.105469 381.597656 534.523438 C 380.570312 537.296875 379.800781 540.160156 378.914062 542.980469 C 376.085938 536.945312 370.550781 538.046875 365.238281 538.429688 C 365.398438 542.007812 374.574219 546.523438 378.226562 548.382812 C 377.773438 547.113281 377.195312 545.894531 376.707031 544.644531 C 376.925781 544.570312 377.363281 544.421875 377.585938 544.351562 C 384.160156 561.492188 385.386719 563.914062 385.386719 563.914062 C 374.824219 557.1875 373.574219 559.96875 366.011719 556.316406 Z M 387.941406 563.847656 C 386.472656 561.480469 384.347656 559.199219 382.5625 554.050781 L 382.589844 553.613281 L 382.265625 553.609375 C 382.109375 551.867188 379.195312 545.429688 381.78125 534.550781 C 383.265625 535.640625 384.382812 537.160156 385.800781 538.34375 C 384.964844 540.523438 382.828125 542.03125 381.894531 544.214844 C 381.683594 545.320312 381.949219 547.125 383.398438 547.132812 C 392.652344 548.574219 382.050781 530.078125 422.441406 575.574219 C 424.863281 578.40625 427.140625 581.398438 429.175781 584.519531 C 418.519531 577.011719 413.402344 572.644531 398.816406 567.707031 C 409.417969 565.050781 408.046875 565.167969 408.304688 564.023438 C 404.9375 563.480469 401.527344 563.171875 398.152344 562.710938 L 397.890625 562.410156 C 401.054688 562.34375 404.214844 562.273438 407.378906 562.203125 C 407.53125 562.148438 407.835938 562.042969 407.984375 561.992188 C 407.242188 560.09375 405.386719 558.972656 403.632812 558.160156 C 397.917969 557.621094 398.632812 559.058594 396.386719 559.238281 L 396.382812 559.582031 C 396.207031 559.601562 395.867188 559.640625 395.691406 559.660156 C 395.171875 560.03125 388.847656 563.621094 387.941406 563.847656 Z M 393.25 568.730469 C 416.457031 571.625 446.109375 599.207031 450.558594 616.117188 C 427.558594 592.984375 416.738281 585.019531 393.25 568.730469 Z M 444.421875 514.96875 C 448.21875 519.394531 451.601562 524.183594 455.261719 528.730469 C 455.792969 528.589844 456.292969 528.378906 456.769531 528.109375 C 456.609375 527.519531 453.386719 515.390625 453.496094 514.351562 C 454.316406 514.089844 458.464844 529.230469 458.652344 530.035156 C 458.25 530.910156 454.089844 536.804688 453.421875 537.453125 C 449.449219 530.394531 446.171875 522.898438 444.421875 514.96875 Z M 467.394531 578.050781 C 467.253906 578.058594 466.96875 578.070312 466.824219 578.078125 C 462.269531 569.824219 465.613281 561.574219 472.160156 554.9375 C 470.226562 558.941406 468.195312 562.910156 466.132812 566.847656 C 466.203125 567 466.347656 567.296875 466.421875 567.445312 C 466.710938 567.4375 467.292969 567.421875 467.585938 567.414062 L 467.507812 567.242188 C 471.722656 564.523438 472.019531 563.679688 472.992188 564.023438 C 471.210938 568.730469 469.21875 573.359375 467.394531 578.050781 Z M 463.820312 564.359375 C 453.910156 540.085938 455.292969 541.0625 456.007812 539.816406 C 459.8125 533.441406 465.652344 530.316406 469.671875 530.015625 C 470.363281 529.292969 470.335938 531.050781 469.636719 530.367188 C 466.011719 533.15625 461.875 535.332031 458.117188 537.976562 C 457.6875 538.765625 457.59375 539.679688 457.359375 540.546875 C 466.925781 539.09375 476.445312 537.375 486.023438 535.976562 C 481.777344 552.039062 464.917969 537.261719 463.820312 564.359375 Z M 487.1875 533.976562 L 487.207031 534.277344 C 487.039062 534.285156 486.699219 534.296875 486.527344 534.300781 L 486.523438 533.996094 C 479.730469 528.394531 481.292969 522.28125 471.039062 523.453125 L 470.980469 523.511719 C 469.871094 523.621094 468.953125 524.441406 467.867188 524.488281 L 467.84375 524.828125 C 464.710938 526.230469 464.117188 527.972656 461.96875 528.417969 C 466.066406 523.359375 470.277344 518.386719 474.386719 513.339844 C 474.511719 512.699219 473.703125 512.460938 473.234375 512.316406 C 471.839844 514.027344 459.875 528.90625 459.070312 529.441406 C 459.296875 525.074219 465.859375 515.257812 454.664062 506.886719 C 453.085938 505.710938 446.300781 500.996094 442.21875 500.925781 C 440.945312 487.238281 445.246094 470.695312 452.660156 460.21875 C 455.722656 460.878906 458.886719 461.753906 461.632812 463.226562 L 461.957031 463.0625 L 462.324219 463.253906 L 462.355469 463.605469 C 467.761719 464.152344 484.636719 478.984375 487.828125 483.671875 C 486.421875 486.300781 484.988281 488.929688 483.804688 491.671875 C 485.097656 491.53125 486.410156 491.605469 487.71875 491.597656 C 488.761719 491.03125 489.988281 490.539062 491.203125 490.785156 C 494.378906 491.753906 498.632812 504.589844 499.160156 507.519531 C 500.050781 512.566406 497.117188 516.753906 487.1875 533.976562 Z M 623.011719 588.773438 C 613.941406 585.226562 607.082031 583.804688 605.144531 584.214844 C 605.171875 584.132812 605.234375 583.964844 605.261719 583.882812 C 586.65625 581.90625 573.886719 589.207031 572.542969 589.246094 L 572.515625 589.589844 C 572.335938 589.59375 571.984375 589.609375 571.808594 589.617188 C 567.78125 591.691406 563.71875 593.890625 559.835938 596.289062 C 561.851562 592.546875 570.882812 578.761719 574.980469 578.121094 C 575.070312 577.992188 575.25 577.730469 575.34375 577.601562 C 575.542969 577.53125 575.949219 577.382812 576.152344 577.308594 L 576.214844 576.972656 C 576.605469 576.824219 579.347656 575.511719 580.160156 575.035156 C 580.746094 573.855469 579.195312 573.945312 578.527344 574.171875 C 569.621094 574.378906 558.488281 580.511719 551.769531 592.476562 C 544.613281 605.160156 527.726562 614.417969 527.136719 614.484375 L 527.128906 614.832031 C 526.964844 614.851562 526.628906 614.894531 526.460938 614.914062 C 526.460938 614.914062 500.226562 633.375 500.226562 633.375 C 500.140625 633.507812 499.957031 633.761719 499.867188 633.894531 L 499.570312 633.71875 L 499.613281 633.417969 C 499.285156 631.257812 499.402344 628.894531 500.726562 627.113281 C 500.734375 626.9375 500.757812 626.582031 500.765625 626.398438 L 501.101562 626.386719 C 501.023438 625.445312 505.464844 616.050781 507.988281 609.71875 C 508.503906 610.695312 511.238281 620.953125 511.421875 621.679688 C 511.722656 621.703125 512.316406 621.742188 512.617188 621.761719 C 513.6875 616.707031 514.542969 611.589844 515.867188 606.601562 C 516.6875 612.035156 515.089844 617.402344 513.320312 622.488281 C 517.976562 620.101562 521.835938 615.464844 522.257812 610.09375 C 523.160156 596.691406 506.710938 596.886719 526.050781 576.40625 C 526.632812 575.824219 528.566406 573.3125 533.09375 570.738281 C 536.605469 568.992188 543.765625 563.136719 543.789062 563.132812 L 543.828125 562.78125 C 591.742188 539.929688 617.117188 582.472656 623.011719 588.773438 Z M 577.035156 492.558594 C 568.25 488.34375 552.183594 513.265625 539.09375 522.4375 C 545.75 486.960938 542.648438 491.191406 553.0625 484.78125 C 553.507812 484.539062 553.890625 484.097656 554.453125 484.136719 L 554.496094 483.792969 C 575.816406 474.691406 586.777344 478.65625 588.734375 480.046875 C 576.570312 488.105469 575.964844 487.445312 577.035156 492.558594 Z M 541.925781 398.921875 C 542.050781 392.15625 542.191406 385.386719 542.410156 378.625 C 542.796875 378.589844 543.191406 378.5625 543.597656 378.542969 C 546.328125 384.1875 543.574219 390.308594 543.1875 398.839844 C 542.871094 398.859375 542.242188 398.898438 541.925781 398.921875 Z M 560.472656 318.039062 C 566.367188 325.609375 563.015625 338.265625 555.183594 342.917969 C 554.609375 335.179688 553.449219 327.480469 552.824219 319.757812 C 553.96875 321.175781 559.820312 330.660156 560.410156 331.757812 C 561.019531 331.789062 561.644531 331.683594 562.144531 331.296875 C 561.5625 326.882812 561.007812 322.457031 560.472656 318.039062 Z M 559.941406 418.996094 C 560.097656 419.042969 560.410156 419.132812 560.570312 419.175781 C 561.289062 421.621094 560.730469 424.722656 562.855469 426.546875 C 558.003906 437.453125 550.84375 445.273438 547.425781 447.429688 C 547.234375 437.046875 551.019531 427.214844 552.621094 417.070312 C 555.160156 421.03125 557.578125 425.078125 560.246094 428.953125 C 560.261719 425.632812 560.023438 422.304688 559.941406 418.996094 Z M 581.980469 454 C 581.789062 454.035156 581.398438 454.109375 581.203125 454.144531 L 581.21875 454.507812 L 580.878906 454.75 L 580.542969 454.628906 C 577.472656 456.796875 561.90625 466.492188 560.71875 467.101562 C 573.917969 450.515625 579.265625 444.445312 582.859375 447.058594 C 584.140625 452.863281 583.820312 453.148438 582.398438 453.460938 C 582.285156 453.582031 582.054688 453.828125 581.945312 453.949219 Z M 638.46875 449.480469 L 638.421875 449.824219 C 637.605469 450.167969 625.9375 458.050781 625.453125 458.160156 L 625.402344 458.503906 C 624.84375 458.734375 617.441406 463.351562 616.722656 463.808594 C 614.59375 465.550781 614.46875 467.996094 615.15625 470.664062 C 614.539062 470.015625 613.921875 469.773438 613.339844 469.574219 L 613.285156 469.238281 C 600.328125 468.300781 599.042969 478.296875 586.175781 477.761719 C 578.71875 477.84375 574.746094 471.175781 550.914062 483.476562 C 548.699219 481.324219 581.773438 457.5625 584.871094 457.335938 L 584.875 456.980469 L 585.226562 456.75 L 585.558594 456.886719 C 586.261719 456.371094 587.121094 455.75 588.015625 455.734375 L 588.019531 455.394531 C 588.191406 455.371094 588.53125 455.339844 588.703125 455.316406 C 592.449219 453.214844 601.492188 449.230469 617.007812 445.933594 C 624.867188 444.460938 632.964844 445.992188 640.558594 448.132812 C 639.171875 449.15625 639.679688 448.84375 638.46875 449.480469 Z M 792.457031 444.492188 C 792.246094 444.625 791.828125 444.890625 791.621094 445.019531 C 791.035156 444.722656 763.359375 430.515625 762.964844 429.910156 C 770.828125 428.871094 778.65625 427.554688 786.523438 426.5625 C 788.40625 432.566406 790.621094 438.472656 792.457031 444.492188 Z M 678.09375 364.8125 C 678.386719 365.003906 678.636719 365.253906 678.84375 365.550781 C 676.316406 367.007812 673.722656 368.347656 671.109375 369.628906 C 670.910156 369.164062 670.742188 368.714844 670.566406 368.265625 C 673.101562 367.171875 675.601562 366.003906 678.09375 364.8125 Z M 638.792969 396.34375 C 640.546875 393.503906 643.722656 392.09375 646.265625 390.082031 C 660.015625 378.632812 670.765625 365.28125 695.792969 364.019531 C 754.167969 365.863281 786.136719 422.320312 785.757812 424.394531 C 750.054688 440.246094 736.996094 401.855469 659.84375 438.671875 C 664.644531 430.875 681.890625 411.617188 690.597656 393.808594 C 686.0625 394.902344 671.242188 423.542969 664.140625 423.171875 C 662.289062 424.300781 661.964844 426.621094 660.816406 428.300781 C 657.585938 433.570312 652.042969 436.6875 647.859375 441.085938 C 647.199219 441.789062 646.128906 441.542969 645.285156 441.566406 C 626.148438 440.15625 610.222656 441.644531 589.261719 450.617188 C 588.960938 449.550781 588.214844 449.625 583.355469 446.867188 C 586.628906 444.832031 595.015625 445.355469 601.054688 443.183594 C 598.402344 443.21875 580.332031 444.839844 579.738281 444.914062 C 591.050781 433.34375 627.757812 403.816406 629.792969 402.855469 C 635.328125 403.332031 635.726562 401.257812 638.792969 396.34375 Z M 603.789062 393.386719 L 604.199219 393.351562 L 604.183594 393.007812 C 604.355469 392.976562 604.699219 392.917969 604.867188 392.886719 C 612.371094 387.972656 625.371094 383.066406 634.574219 381.171875 C 632.683594 382.496094 630.535156 383.417969 628.660156 384.769531 L 628.214844 384.703125 L 628.179688 385.058594 C 625.359375 386.355469 623.789062 387.804688 621.511719 388.65625 L 621.46875 389 C 619.695312 389.765625 619.542969 390.210938 618.722656 390.269531 L 618.664062 390.609375 C 617.132812 391.175781 613.730469 393.679688 610.863281 394.988281 L 610.808594 395.328125 C 601.167969 399.285156 579.742188 416.652344 571.789062 423.414062 C 573.722656 419.9375 585.898438 404.222656 603.789062 393.386719 Z M 578.640625 407.539062 C 577.773438 398.734375 577.113281 389.902344 576.128906 381.109375 C 575.992188 381.199219 575.710938 381.378906 575.574219 381.464844 C 576.324219 385.984375 578.617188 411.042969 563.507812 425.796875 C 567.457031 407.171875 552.613281 410.398438 553.695312 404.382812 C 555.878906 389.523438 570.679688 371.84375 575.617188 370.039062 C 576.101562 371.261719 575.496094 373.34375 577 373.855469 C 577.238281 373.203125 577.34375 372.410156 577.960938 371.992188 C 577.925781 372.835938 577.898438 373.6875 577.980469 374.539062 C 581.515625 373.265625 585.152344 367.160156 586.695312 363.707031 C 588.167969 361.964844 590.515625 361.390625 592.453125 360.304688 C 596.394531 371.980469 589.804688 396.246094 578.640625 407.539062 Z M 592.703125 357.753906 C 574.457031 368.234375 575.082031 365.179688 558.378906 384.664062 C 561.578125 372.589844 566.460938 360.976562 572.550781 350.074219 C 578.136719 351.261719 583.746094 352.355469 589.304688 353.667969 C 589.71875 353.242188 590.117188 352.648438 589.828125 352.039062 C 587.632812 350.359375 585.359375 348.769531 583.238281 346.996094 C 587.652344 347.3125 592.019531 351.023438 592.703125 357.753906 Z M 588.949219 346.683594 C 587.90625 344.949219 586.328125 343.679688 584.734375 342.496094 C 584.5625 342.476562 584.21875 342.433594 584.046875 342.414062 L 584.046875 342.070312 C 582 341.585938 579.933594 340.910156 577.777344 341.121094 C 577.777344 341.117188 582.097656 334.992188 582.652344 334.164062 C 589.636719 346.816406 589.714844 346.660156 588.949219 346.683594 Z M 611.421875 285.851562 C 606.605469 282.960938 603.277344 281.726562 599.828125 286.34375 C 602.941406 291.238281 608.789062 289.476562 609.800781 289.359375 C 609.855469 289.574219 609.964844 289.996094 610.027344 290.207031 C 606.703125 294.578125 603.703125 299.191406 600.320312 303.511719 L 600.394531 303.683594 C 592.167969 314.167969 592.515625 315.796875 590.980469 315.222656 C 591.101562 313.589844 591.925781 312.078125 592.050781 310.433594 C 593.445312 301.171875 588.925781 292.449219 588.554688 283.304688 C 588.515625 283.363281 588.4375 283.480469 588.402344 283.539062 C 588.402344 283.539062 589.027344 303.167969 589.027344 303.167969 C 580.226562 301.488281 577.546875 309.710938 580.671875 318.214844 C 580.816406 318.207031 581.105469 318.191406 581.246094 318.179688 C 581.3125 318.144531 581.4375 318.066406 581.5 318.027344 C 583.316406 316.085938 585.550781 314.539062 587.527344 312.742188 C 591.570312 307.632812 580.160156 333.652344 580.828125 326.609375 C 579.960938 324.351562 579.667969 321.777344 578.125 319.839844 C 578.609375 325.453125 581.617188 326.941406 577.261719 332.726562 C 576.621094 333.792969 566.476562 347.40625 558.648438 366.101562 C 557.757812 367.902344 557.320312 369.921875 556.191406 371.59375 C 556.1875 371.09375 555.65625 350.757812 555.582031 349.882812 C 556.003906 346.457031 566.867188 336.726562 566.886719 320.714844 C 566.652344 308.996094 552.125 306.238281 551.109375 307.089844 C 549.902344 305.667969 545.800781 291.113281 553.019531 279.449219 C 559.089844 269.585938 569.550781 258.875 578.496094 253.332031 L 578.429688 253.242188 C 611.140625 231.574219 609.4375 225.605469 623.03125 225.371094 L 622.882812 225.847656 C 619.433594 226.769531 615.847656 227.453125 612.519531 228.675781 C 618.878906 232.675781 619.914062 232.574219 629.457031 230.308594 C 629.054688 247.644531 617.585938 278.804688 611.421875 285.851562 Z M 559.90625 252.394531 C 560.179688 252.171875 560.527344 252.148438 560.941406 252.328125 C 559.703125 258.652344 557.617188 265.015625 553.667969 270.207031 C 553.394531 270.039062 552.835938 269.710938 552.558594 269.550781 C 555.140625 264.007812 557.296875 258.238281 559.914062 252.726562 Z M 547.324219 193.429688 L 547.742188 193.371094 L 547.492188 193.214844 C 558.203125 162.214844 575.3125 143.742188 599.628906 127.300781 C 613.289062 153.066406 630.609375 180.15625 628.414062 202.367188 C 628.847656 202.625 629.308594 202.890625 629.78125 203.144531 C 630.367188 208.644531 630.242188 214.199219 630.449219 219.726562 C 624.390625 218.136719 621.359375 219.449219 616.445312 223.210938 C 617.179688 221.175781 624.199219 210.667969 625.851562 207.46875 C 625.851562 207.46875 614.828125 222.167969 609.355469 227.191406 C 596.222656 239.746094 567.636719 254.296875 560.632812 263.738281 C 560.097656 264.339844 559.941406 265.75 558.855469 265.355469 C 560.230469 260.476562 561.964844 255.6875 563.109375 250.761719 C 552.511719 247.289062 552.671875 257.160156 544.207031 276.304688 C 536.351562 243.339844 539.558594 218.652344 547.324219 193.429688 Z M 540.585938 304.515625 C 541.617188 305.550781 549.617188 352.324219 541.835938 363.261719 C 541.328125 362.675781 536.574219 356.757812 534.824219 353.242188 C 530.769531 345.339844 537.492188 308.109375 540.585938 304.515625 Z M 537.121094 286.09375 C 537.019531 287.898438 537.191406 289.707031 537.167969 291.515625 C 536.988281 293.765625 539.292969 295.589844 538.515625 297.878906 C 530.414062 329.730469 531.863281 325.71875 523.445312 324.417969 C 522.371094 320.441406 523.066406 316.144531 525.117188 312.601562 C 524.78125 312.058594 523.878906 311.582031 524.425781 310.882812 C 530.914062 294.308594 531.851562 291.574219 534.824219 286.933594 C 535.523438 286.570312 536.296875 285.898438 537.121094 286.09375 Z M 523.585938 209.75 C 520.527344 206.917969 517.589844 203.953125 514.535156 201.109375 C 517.738281 201.75 522.503906 206.953125 523.585938 209.75 Z M 523.207031 211.996094 C 523.546875 211.585938 523.929688 211.199219 524.359375 210.875 C 525.5625 213.320312 525.621094 229.652344 525.574219 230.746094 C 525.050781 230.5625 513.550781 209.859375 513.285156 209.371094 C 516.605469 210.191406 519.886719 211.15625 523.207031 211.996094 Z M 477.429688 176.160156 C 501.253906 195.320312 534.664062 265.796875 532.683594 272.632812 L 533.007812 272.636719 C 533.703125 280.296875 539.214844 280.234375 532.238281 290.066406 C 530.535156 292.195312 526.429688 299.847656 520.398438 299.433594 L 520.386719 299.769531 C 520.214844 299.785156 519.875 299.8125 519.707031 299.828125 C 518.609375 300.691406 508.734375 304.738281 510.835938 317.609375 C 484.074219 280.640625 486.5625 287.074219 474.832031 274.445312 C 472.511719 271.832031 446.515625 218.277344 477.429688 176.160156 Z M 459.636719 197.902344 C 459.117188 198.125 458.609375 198.351562 458.101562 198.59375 C 461.164062 180.78125 468.722656 168.429688 469.105469 166.832031 C 469.105469 166.832031 473.207031 173.433594 473.207031 173.433594 C 473.351562 173.054688 473.511719 172.675781 473.675781 172.300781 C 474.476562 173.226562 475.582031 173.964844 476.203125 175.007812 C 459.011719 207.417969 453.300781 224.183594 470.335938 270.066406 C 471.273438 270.425781 469.621094 271.070312 470.003906 270.152344 C 463.933594 267.910156 462 258.464844 461.445312 256.589844 C 450.105469 216.203125 459.539062 198.488281 459.636719 197.902344 Z M 458.480469 259.613281 L 458.78125 259.59375 C 458.796875 259.761719 458.832031 260.105469 458.847656 260.277344 L 458.542969 260.289062 C 458.726562 262.09375 456.417969 259.425781 441.210938 248.976562 C 442.164062 247.304688 441.75 246.371094 447.730469 241.050781 C 448.582031 242.496094 457.953125 258.328125 458.480469 259.613281 Z M 443.5 244.171875 C 442.839844 245.804688 441.035156 246.371094 439.804688 247.480469 C 437.671875 245.941406 435.691406 244.199219 433.683594 242.507812 C 436.476562 240.824219 439.414062 239.398438 442.214844 237.726562 C 442.152344 237.300781 442.09375 236.875 442.046875 236.460938 C 438.46875 236.234375 434.882812 236.308594 431.300781 236.171875 C 434.953125 233.863281 439.710938 234.539062 443.574219 236.054688 C 448.671875 237.835938 443.792969 243.585938 443.5 244.171875 Z M 441.863281 234.394531 C 439.351562 233.804688 440.292969 230.691406 429.992188 232.300781 L 429.976562 232.652344 C 429.808594 232.667969 429.472656 232.699219 429.304688 232.714844 C 428.019531 233.992188 425.386719 234.671875 423.972656 233.519531 C 423.808594 233.480469 423.488281 233.402344 423.324219 233.363281 L 423.363281 233.023438 C 422.015625 232.332031 421.007812 230.785156 420.046875 229.5625 C 420.433594 229.292969 420.859375 229.113281 421.328125 229.023438 L 421.398438 228.6875 C 422.183594 228.425781 428.945312 224.589844 432.097656 222.667969 C 432.679688 223.113281 440.527344 230.882812 441.863281 234.394531 Z M 414.804688 212.933594 C 414.636719 216.808594 414.765625 221.011719 417.066406 224.3125 C 418.550781 220.585938 419.742188 216.738281 421.378906 213.074219 C 422.191406 213.390625 430.386719 220.71875 430.808594 221.15625 C 430.15625 221.457031 429.570312 222.089844 428.816406 222.023438 L 428.820312 222.351562 C 427.863281 222.480469 428.386719 222.347656 427.1875 222.828125 L 427.15625 223.167969 C 422.832031 225.035156 420.914062 226.519531 417.832031 227.628906 C 414.40625 223.707031 412.5625 217.871094 414.804688 212.933594 Z M 394.539062 197.960938 C 394.691406 197.125 395.839844 197.273438 396.140625 197.882812 C 396.316406 197.90625 396.660156 197.953125 396.832031 197.972656 L 396.824219 198.3125 C 398.246094 198.679688 403.234375 201.515625 412.480469 206.082031 C 408.285156 212.144531 409.324219 215.730469 410.945312 219.460938 C 410 219.890625 394.066406 198.5 394.539062 197.960938 Z M 393.652344 203.167969 C 394.300781 203.738281 398.089844 209.234375 398.425781 209.882812 C 395.511719 208.398438 392.304688 206.824219 393.652344 203.167969 Z M 392.035156 211.691406 C 401.234375 212.371094 407.570312 222.726562 414.003906 229.941406 C 400.902344 233.46875 387.730469 236.753906 374.59375 240.183594 C 382.671875 228.738281 381.863281 232.300781 392.035156 211.691406 Z M 373.9375 240.570312 C 373.515625 241.195312 373.074219 241.804688 372.613281 242.398438 C 372.191406 242.019531 371.726562 241.667969 371.519531 241.132812 C 372.324219 240.960938 373.132812 240.785156 373.9375 240.570312 Z M 349.464844 256.714844 L 349.523438 256.371094 C 350.707031 255.871094 358 251.160156 358.945312 251.195312 L 358.953125 250.847656 L 359.304688 250.628906 L 359.640625 250.777344 C 373.730469 242.855469 415.070312 232.214844 415.65625 232.445312 C 417.457031 233.171875 416.195312 232.835938 435.476562 251.644531 C 429.515625 262.027344 421.707031 246.800781 411.867188 257.566406 C 405.464844 264.683594 413.511719 264.550781 417.234375 266.195312 C 412.1875 269.773438 406.46875 272.371094 400.820312 274.875 L 400.25 274.871094 L 400.265625 275.164062 C 399.679688 275.390625 392.617188 278.066406 390.082031 278.949219 L 389.613281 278.882812 L 389.628906 279.148438 C 371.988281 285.023438 372.925781 286.210938 366.40625 289.925781 L 365.96875 289.941406 L 365.9375 290.28125 C 365.386719 290.5625 365.039062 290.757812 364.398438 290.753906 L 364.375 291.09375 C 363.835938 291.351562 363.457031 291.539062 362.828125 291.523438 L 362.800781 291.867188 C 362.621094 291.871094 362.269531 291.886719 362.09375 291.890625 C 360.605469 293.097656 341.964844 288.613281 341.375 288.464844 C 342.25 266.480469 339.996094 259.429688 349.464844 256.714844 Z M 340.777344 289.828125 C 346.457031 291.242188 352.050781 292.988281 357.753906 294.3125 C 357.378906 295.339844 334.191406 318.035156 333.269531 318.808594 C 335.71875 309.136719 338.285156 299.492188 340.777344 289.828125 Z M 322.886719 281.34375 C 322.820312 280.832031 322.761719 280.320312 322.71875 279.816406 C 322.71875 279.816406 337.414062 265.097656 337.414062 265.097656 C 337.585938 264.222656 339.007812 264.625 338.921875 265.394531 C 338.742188 282.933594 340.675781 279.1875 324.199219 282.03125 C 324.402344 285.722656 319.804688 285.921875 321.167969 298.203125 C 322.5 296.800781 325.289062 291.453125 327.730469 287.890625 L 328.195312 287.710938 C 328.519531 288.664062 326.164062 292.03125 322.304688 299.703125 C 322.640625 300.046875 322.984375 300.390625 323.347656 300.734375 C 326.476562 298.804688 326.964844 297.957031 328.949219 296.980469 L 329.003906 296.632812 C 330.085938 296.164062 334.300781 292.910156 337.429688 290.800781 C 337.429688 290.800781 325.324219 329.824219 325.324219 329.824219 C 325.15625 329.789062 324.808594 329.714844 324.640625 329.675781 L 324.695312 329.386719 C 324.207031 328.71875 324.355469 327.847656 324.210938 327.082031 C 320.957031 292.578125 312.355469 284.839844 322.886719 281.34375 Z M 294.9375 327.425781 C 294.53125 324.90625 297.140625 329.28125 305.328125 333.070312 C 311.765625 335.738281 316.378906 335.890625 319.070312 336.425781 C 318.449219 332.289062 310.355469 327.136719 309.054688 326.25 C 312.445312 326.675781 315.144531 329.109375 317.460938 331.449219 L 317.421875 331.527344 C 318.054688 332.09375 318.59375 332.753906 319.230469 333.324219 C 320.578125 321.84375 309.175781 317.382812 298.039062 320.289062 C 299.410156 316.523438 301.34375 312.976562 302.90625 309.285156 C 307.789062 310.214844 312.730469 310.902344 317.582031 311.957031 C 319.652344 304.273438 313.789062 302.0625 311.5 300.613281 C 311.328125 300.601562 310.972656 300.582031 310.796875 300.570312 L 310.78125 300.234375 C 309.960938 300.316406 309.246094 299.828125 308.539062 299.507812 C 309.878906 296.910156 315.328125 288.976562 315.933594 288.351562 C 319.363281 305.039062 319.710938 303.507812 321.011719 330.164062 C 320.90625 334.863281 322.21875 336.640625 315.617188 349.261719 C 311.929688 355.792969 315.082031 355.132812 304.765625 356.3125 C 293.546875 357.527344 285.425781 361.757812 287.101562 375.15625 C 289.683594 372.238281 292.117188 369.179688 294.679688 366.242188 C 294.84375 366.210938 295.175781 366.152344 295.339844 366.121094 C 294.8125 367.707031 290.347656 373.175781 288.351562 376.273438 C 290.523438 376.011719 292.433594 374.683594 294.5625 374.359375 L 294.625 374.027344 C 299.632812 372.320312 304.878906 369.03125 308.3125 364.570312 C 306.851562 372.03125 305.015625 379.429688 303.460938 386.882812 L 303.210938 387.058594 C 303.203125 387.351562 303.1875 387.9375 303.179688 388.222656 L 302.953125 388.234375 C 303.164062 388.996094 297.902344 411.609375 297.515625 413.179688 C 284.128906 372.214844 281.132812 377.683594 294.9375 327.425781 Z M 207.679688 338.4375 C 210.035156 339.304688 212.238281 340.550781 214.613281 341.359375 C 214.261719 342.066406 209.179688 343.710938 208.429688 349.402344 L 208.019531 349.386719 C 207.976562 345.730469 207.769531 342.074219 207.679688 338.4375 Z M 220.535156 370.496094 C 220.441406 370.449219 220.246094 370.351562 220.148438 370.304688 C 218.148438 364.253906 214.992188 363.988281 208.367188 363.847656 C 208.425781 360.273438 208.132812 356.675781 208.121094 353.125 C 208.871094 352.050781 209.703125 351.03125 210.542969 350.027344 C 210.679688 350.019531 210.957031 350.007812 211.101562 350 C 210.324219 351.375 209.757812 352.847656 209.097656 354.277344 C 209.371094 354.644531 209.648438 355.015625 209.929688 355.394531 C 213.027344 353.339844 216.4375 351.757812 219.371094 349.449219 C 219.957031 349 225.570312 343.828125 226.191406 347.933594 C 225.960938 348.789062 222.675781 361.496094 222.632812 362.476562 L 222.300781 362.492188 C 222.109375 365.199219 220.976562 367.796875 220.535156 370.496094 Z M 225.085938 398.316406 C 222.289062 395.429688 217.808594 369.160156 228.671875 348.707031 C 249.371094 361.066406 278.054688 385.136719 288.421875 408.269531 C 274.070312 395.804688 267.199219 399.804688 247.609375 404.261719 C 250.609375 409.691406 255.320312 413.382812 260.636719 416.636719 C 260.808594 416.648438 261.152344 416.675781 261.328125 416.6875 L 261.339844 417.035156 C 261.339844 417.035156 266.113281 419.734375 290.5625 422.78125 C 286.953125 417.738281 279.875 413.570312 279.867188 413.5625 C 279.695312 413.535156 279.347656 413.480469 279.171875 413.457031 L 279.179688 413.109375 C 279.089844 413.117188 271.789062 409.789062 271.734375 409.761719 L 271.519531 409.402344 C 274.304688 409.722656 276.882812 410.894531 279.496094 411.824219 C 279.582031 411.941406 279.75 412.175781 279.832031 412.292969 C 282.144531 411.636719 291.585938 420.601562 292.171875 421.085938 C 292.117188 420.136719 292.027344 419.191406 292.066406 418.25 C 294.292969 419.59375 292.296875 422.914062 297.230469 423.457031 C 306.953125 451.808594 312.542969 451.621094 311.730469 465.304688 C 310.941406 464.632812 310.625 463.613281 309.933594 462.875 C 294.097656 445.578125 269.9375 431.351562 266.222656 430.101562 L 266.152344 429.765625 C 265.921875 429.660156 265.464844 429.457031 265.238281 429.355469 C 265.066406 429.335938 264.734375 429.296875 264.566406 429.273438 L 264.570312 428.929688 C 264.160156 429.011719 260.871094 427.230469 260.558594 426.964844 C 260.382812 426.953125 260.03125 426.933594 259.855469 426.921875 L 259.835938 426.582031 L 259.386719 426.605469 C 259.269531 426.507812 259.035156 426.304688 258.921875 426.207031 C 258.746094 426.183594 258.402344 426.132812 258.230469 426.109375 L 258.246094 425.777344 C 257.21875 425.949219 238.609375 416.898438 225.085938 398.316406 Z M 271.34375 409.242188 L 271.34375 409.519531 C 271.167969 409.515625 270.820312 409.507812 270.648438 409.507812 L 270.648438 409.238281 C 270.820312 409.238281 271.167969 409.242188 271.34375 409.242188 Z M 198.976562 417.914062 C 201.960938 420.132812 201.054688 422.699219 202.898438 424.996094 C 200.09375 424.070312 197.453125 422.699219 194.707031 421.617188 L 194.601562 421.429688 C 194.429688 421.421875 194.089844 421.402344 193.921875 421.394531 L 193.902344 421.058594 C 191.890625 420.824219 190.171875 419.390625 188.359375 418.527344 C 188.332031 418.355469 188.277344 418.003906 188.25 417.828125 C 191.828125 417.832031 195.460938 416.847656 198.976562 417.914062 Z M 166.261719 423.070312 C 174.351562 419.984375 188.378906 416.511719 194.503906 422.570312 C 187.5 422.632812 184.828125 426.355469 182.386719 432.796875 C 181.363281 432.410156 168.722656 424.742188 166.261719 423.070312 Z M 185.308594 434.605469 C 185.292969 434.511719 185.261719 434.316406 185.246094 434.21875 C 186.695312 433.542969 187.996094 432.402344 189.519531 431.984375 L 189.570312 431.648438 C 190.515625 431.296875 194.265625 428.964844 197.320312 427.273438 C 198.03125 427.09375 197.648438 426.339844 197.644531 425.863281 C 196.230469 425.738281 194.808594 425.765625 193.410156 425.53125 C 200.945312 422.992188 201.722656 427.667969 206.765625 432.695312 C 207.292969 433.285156 215.550781 442.574219 215.984375 443.386719 C 212.957031 443.785156 209.878906 443.429688 206.839844 443.722656 C 210.765625 444.800781 215.058594 444.929688 218.742188 446.667969 C 218.921875 446.683594 219.277344 446.71875 219.453125 446.738281 L 219.453125 447.074219 C 221.710938 447.496094 225.285156 450.9375 226.984375 452.535156 C 212.660156 447.652344 198.539062 441.992188 185.308594 434.605469 Z M 225.316406 445.59375 C 227.605469 445.40625 229.425781 443.792969 231.328125 442.664062 C 224.484375 440.105469 225.476562 441.074219 224.03125 441.847656 C 220.585938 436.285156 222.976562 428.304688 222.460938 426.828125 C 219.597656 432.742188 222 438.179688 222.558594 444.71875 C 217.503906 442.351562 206.21875 430.972656 202.105469 417.394531 C 232.390625 420.625 222.378906 420.046875 225.433594 421.121094 C 237.519531 421.945312 253.746094 428.878906 264.132812 434.582031 L 264.230469 434.757812 C 264.402344 434.785156 264.75 434.824219 264.925781 434.847656 L 264.933594 435.183594 C 265.410156 435.085938 270.832031 438.492188 271.542969 438.777344 L 271.589844 439.117188 C 279.832031 441.429688 307.332031 468.570312 308.371094 469.546875 C 308.289062 469.683594 308.128906 469.964844 308.050781 470.105469 C 308.050781 470.105469 279.402344 461.796875 259.765625 460.097656 C 259.683594 460.042969 259.519531 459.925781 259.433594 459.871094 C 233.027344 456.660156 239.445312 451 232.546875 448.964844 C 230.027344 448.941406 229.183594 452.652344 225.316406 445.59375 Z M 225.316406 445.59375 " fill-opacity="1" fill-rule="nonzero"/></g><path fill="#000000" d="M 132.628906 8.773438 C 131.730469 10.667969 134.410156 8.984375 132.628906 8.773438 " fill-opacity="1" fill-rule="nonzero"/></g></g></g><g fill="#ffffff" fill-opacity="1"><g transform="translate(123.287118, 582.288531)"><g><path d="M 163.953125 -255.125 L 165.875 -262.796875 C 165.875 -267.390625 163.507812 -270.769531 158.78125 -272.9375 C 154.0625 -275.113281 149.398438 -276.203125 144.796875 -276.203125 C 134.078125 -276.203125 120.800781 -272.753906 104.96875 -265.859375 C 89.132812 -258.960938 75.210938 -250.722656 63.203125 -241.140625 C 51.203125 -231.566406 45.132812 -223.457031 45 -216.8125 C 44.875 -210.175781 48.066406 -204.046875 54.578125 -198.421875 C 61.097656 -192.804688 68.25 -188.210938 76.03125 -184.640625 C 83.820312 -181.066406 90.972656 -176.535156 97.484375 -171.046875 C 104.003906 -165.554688 107.265625 -159.550781 107.265625 -153.03125 C 107.265625 -146.519531 105.285156 -140.328125 101.328125 -134.453125 C 97.367188 -128.585938 92.578125 -123.414062 86.953125 -118.9375 C 81.335938 -114.46875 75.847656 -109.9375 70.484375 -105.34375 C 56.953125 -94.101562 50.1875 -81.59375 50.1875 -67.8125 C 50.1875 -58.863281 53.953125 -51.132812 61.484375 -44.625 C 69.015625 -38.113281 77.695312 -34.859375 87.53125 -34.859375 C 97.363281 -34.859375 107.003906 -36.453125 116.453125 -39.640625 C 125.898438 -42.835938 134.835938 -47.753906 143.265625 -54.390625 C 154.503906 -63.585938 165.867188 -74.316406 177.359375 -86.578125 C 179.148438 -88.359375 180.9375 -89.25 182.71875 -89.25 C 184.507812 -89.25 186.039062 -88.351562 187.3125 -86.5625 C 188.59375 -84.78125 189.234375 -82.867188 189.234375 -80.828125 C 189.234375 -75.722656 184.703125 -67.929688 175.640625 -57.453125 C 166.578125 -46.984375 155.335938 -36.382812 141.921875 -25.65625 C 128.515625 -14.9375 112.875 -5.492188 95 2.671875 C 77.125 10.847656 61.160156 14.9375 47.109375 14.9375 C 33.066406 14.9375 21.703125 11.359375 13.015625 4.203125 C 4.335938 -2.941406 0 -12.453125 0 -24.328125 C 0 -36.203125 3.316406 -47.753906 9.953125 -58.984375 C 16.597656 -70.222656 23.8125 -79.414062 31.59375 -86.5625 C 39.382812 -93.71875 46.597656 -100.742188 53.234375 -107.640625 C 59.878906 -114.535156 63.203125 -120.21875 63.203125 -124.6875 C 63.203125 -129.15625 60.007812 -133.492188 53.625 -137.703125 C 47.238281 -141.921875 40.210938 -145.367188 32.546875 -148.046875 C 24.890625 -150.734375 17.867188 -155.140625 11.484375 -161.265625 C 5.109375 -167.398438 1.921875 -174.8125 1.921875 -183.5 C 1.921875 -198.5625 9.960938 -214.203125 26.046875 -230.421875 C 42.140625 -246.640625 61.039062 -260.429688 82.75 -271.796875 C 104.457031 -283.160156 125.523438 -292.546875 145.953125 -299.953125 C 166.378906 -307.359375 181.125 -311.0625 190.1875 -311.0625 C 199.257812 -311.0625 206.15625 -309.015625 210.875 -304.921875 C 215.601562 -300.835938 217.96875 -295.734375 217.96875 -289.609375 C 217.96875 -280.671875 211.328125 -272.175781 198.046875 -264.125 C 184.765625 -256.082031 175.757812 -252.125 171.03125 -252.25 C 166.3125 -252.382812 163.953125 -253.34375 163.953125 -255.125 Z M 163.953125 -255.125 "/></g></g></g><g fill="#ffffff" fill-opacity="1"><g transform="translate(304.101886, 582.288531)"><g><path d="M 4.21875 -50.1875 L -6.125 -49.421875 C -10.726562 -49.421875 -13.03125 -50.566406 -13.03125 -52.859375 C -13.03125 -56.441406 -8.5 -63.273438 0.5625 -73.359375 C 9.632812 -83.441406 17.75 -88.484375 24.90625 -88.484375 C 27.96875 -88.484375 30.710938 -87.585938 33.140625 -85.796875 C 35.566406 -84.015625 36.90625 -81.847656 37.15625 -79.296875 L 39.078125 -62.0625 C 39.835938 -61.039062 40.597656 -60.53125 41.359375 -60.53125 C 42.128906 -60.53125 44.175781 -62.570312 47.5 -66.65625 C 58.226562 -79.164062 67.804688 -85.421875 76.234375 -85.421875 C 79.554688 -85.421875 82.238281 -84.910156 84.28125 -83.890625 C 86.320312 -82.867188 88.679688 -80.890625 91.359375 -77.953125 C 94.046875 -75.015625 95.515625 -73.421875 95.765625 -73.171875 C 97.554688 -73.929688 99.34375 -74.3125 101.125 -74.3125 C 103.9375 -74.3125 105.34375 -72.585938 105.34375 -69.140625 C 105.34375 -65.691406 100.363281 -59.304688 90.40625 -49.984375 C 80.445312 -40.671875 73.039062 -36.015625 68.1875 -36.015625 C 63.332031 -36.015625 59.242188 -38.179688 55.921875 -42.515625 C 52.609375 -46.859375 50.1875 -49.03125 48.65625 -49.03125 C 42.78125 -49.03125 39.84375 -45.96875 39.84375 -39.84375 C 39.84375 -35.238281 41.945312 -27.445312 46.15625 -16.46875 C 50.375 -5.488281 52.484375 1.019531 52.484375 3.0625 C 52.484375 8.164062 49.863281 12.1875 44.625 15.125 C 39.394531 18.0625 33.648438 19.53125 27.390625 19.53125 C 21.128906 19.53125 16.082031 18.507812 12.25 16.46875 C 8.425781 14.425781 6.515625 11.617188 6.515625 8.046875 L 17.234375 -38.3125 C 17.234375 -46.226562 12.894531 -50.1875 4.21875 -50.1875 Z M 4.21875 -50.1875 "/></g></g></g><g fill="#ffffff" fill-opacity="1"><g transform="translate(386.847637, 582.288531)"><g><path d="M 9.765625 -119.140625 C 5.804688 -123.484375 3.828125 -128.84375 3.828125 -135.21875 C 3.828125 -141.601562 5.804688 -146.96875 9.765625 -151.3125 C 13.722656 -155.65625 18.640625 -157.828125 24.515625 -157.828125 C 30.390625 -157.828125 35.304688 -155.65625 39.265625 -151.3125 C 43.222656 -146.96875 45.203125 -141.601562 45.203125 -135.21875 C 45.203125 -128.84375 43.222656 -123.484375 39.265625 -119.140625 C 35.304688 -114.796875 30.390625 -112.625 24.515625 -112.625 C 18.640625 -112.625 13.722656 -114.796875 9.765625 -119.140625 Z M 89.25 -35.625 C 91.8125 -37.664062 94.113281 -38.6875 96.15625 -38.6875 C 99.726562 -38.6875 101.515625 -36.390625 101.515625 -31.796875 C 101.515625 -25.410156 93.597656 -15.894531 77.765625 -3.25 C 61.929688 9.382812 48.265625 15.703125 36.765625 15.703125 C 25.273438 15.703125 16.335938 11.613281 9.953125 3.4375 C 3.578125 -4.726562 0.390625 -15.257812 0.390625 -28.15625 C 0.390625 -41.050781 2.554688 -53.5 6.890625 -65.5 C 11.234375 -77.507812 15.578125 -83.515625 19.921875 -83.515625 C 21.960938 -83.253906 22.984375 -80.125 22.984375 -74.125 C 22.984375 -68.125 23.875 -61.546875 25.65625 -54.390625 C 27.445312 -47.242188 31.34375 -40.414062 37.34375 -33.90625 C 43.351562 -27.394531 51.144531 -24.140625 60.71875 -24.140625 C 70.289062 -24.140625 79.800781 -27.96875 89.25 -35.625 Z M 89.25 -35.625 "/></g></g></g><g fill="#ffffff" fill-opacity="1"><g transform="translate(476.488821, 582.288531)"><g><path d="M 3.828125 -32.9375 C 3.828125 -37.03125 7.785156 -43.734375 15.703125 -53.046875 C 23.617188 -62.367188 30.066406 -67.03125 35.046875 -67.03125 C 40.023438 -67.03125 43.726562 -65.113281 46.15625 -61.28125 C 48.582031 -57.457031 50.050781 -53.242188 50.5625 -48.640625 C 51.070312 -44.046875 52.539062 -39.832031 54.96875 -36 C 57.394531 -32.175781 60.96875 -30.265625 65.6875 -30.265625 C 70.414062 -30.265625 74.628906 -32.367188 78.328125 -36.578125 C 82.035156 -40.796875 85.039062 -45.519531 87.34375 -50.75 C 89.644531 -55.988281 92.707031 -60.710938 96.53125 -64.921875 C 100.363281 -69.140625 104.128906 -71.25 107.828125 -71.25 C 111.535156 -71.25 114.15625 -69.71875 115.6875 -66.65625 C 131.519531 -32.6875 147.609375 -15.703125 163.953125 -15.703125 C 166.503906 -15.703125 168.800781 -16.082031 170.84375 -16.84375 C 172.894531 -17.613281 174.429688 -18 175.453125 -18 C 178.515625 -18 180.046875 -15.570312 180.046875 -10.71875 C 180.046875 -2.039062 175.507812 5.742188 166.4375 12.640625 C 157.375 19.535156 148.117188 22.984375 138.671875 22.984375 C 129.222656 22.984375 121.242188 19.914062 114.734375 13.78125 C 108.222656 7.65625 103.753906 1.335938 101.328125 -5.171875 C 98.898438 -11.679688 97.109375 -18 95.953125 -24.125 C 94.804688 -30.257812 93.597656 -33.328125 92.328125 -33.328125 C 90.273438 -33.328125 86.25 -29.300781 80.25 -21.25 C 74.25 -13.207031 67.484375 -5.101562 59.953125 3.0625 C 52.421875 11.238281 45.71875 15.328125 39.84375 15.328125 C 33.707031 14.554688 28.851562 11.550781 25.28125 6.3125 C 21.707031 1.082031 19.410156 -4.335938 18.390625 -9.953125 C 16.085938 -25.273438 11.234375 -32.9375 3.828125 -32.9375 Z M 3.828125 -32.9375 "/></g></g></g><g fill="#ffffff" fill-opacity="1"><g transform="translate(646.5773, 582.288531)"><g/></g></g><g fill="#ffffff" fill-opacity="1"><g transform="translate(736.218483, 582.288531)"><g><path d="M 93.09375 -53.25 C 94.625 -36.394531 95.390625 -26.304688 95.390625 -22.984375 C 95.390625 -17.367188 93.085938 -14.5625 88.484375 -14.5625 C 83.890625 -14.5625 81.335938 -16.601562 80.828125 -20.6875 C 80.828125 -21.445312 80.632812 -23.359375 80.25 -26.421875 C 79.875 -29.492188 79.425781 -34.09375 78.90625 -40.21875 C 78.394531 -46.351562 77.882812 -52.101562 77.375 -57.46875 L 76.234375 -57.84375 C 62.953125 -57.84375 56.3125 -50.054688 56.3125 -34.484375 C 56.3125 -22.984375 62.441406 -12.957031 74.703125 -4.40625 C 86.960938 4.144531 99.472656 8.421875 112.234375 8.421875 C 125.003906 8.421875 139.691406 2.550781 156.296875 -9.1875 C 151.441406 -12.507812 144.546875 -17.617188 135.609375 -24.515625 C 116.710938 -39.328125 102.539062 -48.90625 93.09375 -53.25 Z M 73.546875 -222.953125 C 76.359375 -222.953125 78.46875 -221.097656 79.875 -217.390625 C 81.28125 -213.691406 81.984375 -210.050781 81.984375 -206.46875 C 81.984375 -202.894531 84.789062 -163.695312 90.40625 -88.875 C 98.832031 -91.425781 106.8125 -92.703125 114.34375 -92.703125 C 121.882812 -92.703125 129.738281 -91.101562 137.90625 -87.90625 C 146.082031 -84.71875 152.335938 -81.71875 156.671875 -78.90625 C 161.015625 -76.101562 167.847656 -71.125 177.171875 -63.96875 C 186.492188 -56.820312 192.304688 -52.484375 194.609375 -50.953125 C 201.242188 -62.953125 204.5625 -75.523438 204.5625 -88.671875 C 204.5625 -101.828125 198.367188 -118.8125 185.984375 -139.625 C 173.597656 -160.445312 158.53125 -180.304688 140.78125 -199.203125 C 123.03125 -218.097656 103.171875 -234.3125 81.203125 -247.84375 C 59.242188 -261.382812 39.710938 -268.15625 22.609375 -268.15625 C 9.578125 -268.15625 -3.832031 -261.644531 -17.625 -248.625 C -28.34375 -237.125 -36.003906 -226.648438 -40.609375 -217.203125 C -41.878906 -214.898438 -43.597656 -213.75 -45.765625 -213.75 C -47.941406 -213.75 -49.859375 -214.453125 -51.515625 -215.859375 C -53.179688 -217.265625 -54.015625 -218.863281 -54.015625 -220.65625 L -53.625 -223.328125 C -47.238281 -235.078125 -34.21875 -250.273438 -14.5625 -268.921875 C -4.851562 -278.367188 6.191406 -286.347656 18.578125 -292.859375 C 30.960938 -299.367188 43.09375 -302.625 54.96875 -302.625 C 66.84375 -302.625 80.695312 -299.5625 96.53125 -293.4375 C 112.363281 -287.3125 128.195312 -278.4375 144.03125 -266.8125 C 159.863281 -255.195312 174.484375 -242.046875 187.890625 -227.359375 C 201.304688 -212.671875 212.160156 -195.8125 220.453125 -176.78125 C 228.753906 -157.757812 232.90625 -137.710938 232.90625 -116.640625 C 232.90625 -95.578125 224.609375 -70.867188 208.015625 -42.515625 C 217.460938 -37.160156 226.65625 -34.484375 235.59375 -34.484375 C 238.40625 -34.484375 242.109375 -36.078125 246.703125 -39.265625 C 251.296875 -42.453125 254.488281 -44.046875 256.28125 -44.046875 C 259.851562 -44.046875 261.640625 -42.257812 261.640625 -38.6875 C 261.640625 -31.539062 254.550781 -21.773438 240.375 -9.390625 C 226.207031 2.992188 212.226562 9.1875 198.4375 9.1875 C 191.28125 9.1875 182.851562 6.632812 173.15625 1.53125 C 139.4375 35.238281 103.039062 52.09375 63.96875 52.09375 C 49.664062 52.09375 38.75 48.257812 31.21875 40.59375 C 23.6875 32.9375 19.921875 21.828125 19.921875 7.265625 C 19.921875 -7.285156 25.023438 -23.5 35.234375 -41.375 C 45.453125 -59.25 58.734375 -72.785156 75.078125 -81.984375 C 68.179688 -157.828125 64.671875 -196.515625 64.546875 -198.046875 C 64.421875 -199.578125 63.523438 -201.046875 61.859375 -202.453125 C 60.203125 -203.859375 59.375 -205.898438 59.375 -208.578125 C 59.375 -211.265625 61.035156 -214.332031 64.359375 -217.78125 C 67.679688 -221.226562 70.742188 -222.953125 73.546875 -222.953125 Z M 73.546875 -222.953125 "/></g></g></g><g fill="#ffffff" fill-opacity="1"><g transform="translate(219.558155, 875.053563)"><g><path d="M 35.46875 -54.1875 L 35.46875 0 L 21.9375 0 L 21.9375 -54.1875 L 1.0625 -54.1875 L 1.0625 -64.65625 L 56.390625 -64.65625 L 56.390625 -54.1875 Z M 35.46875 -54.1875 "/></g></g></g><g fill="#ffffff" fill-opacity="1"><g transform="translate(316.430851, 875.053563)"><g><path d="M 48 0 L 48 -27.71875 L 19.828125 -27.71875 L 19.828125 0 L 6.28125 0 L 6.28125 -64.65625 L 19.828125 -64.65625 L 19.828125 -38.90625 L 48 -38.90625 L 48 -64.65625 L 61.53125 -64.65625 L 61.53125 0 Z M 48 0 "/></g></g></g><g fill="#ffffff" fill-opacity="1"><g transform="translate(423.765255, 875.053563)"><g><path d="M 6.28125 0 L 6.28125 -64.65625 L 57.125 -64.65625 L 57.125 -54.1875 L 19.828125 -54.1875 L 19.828125 -37.953125 L 54.328125 -37.953125 L 54.328125 -27.484375 L 19.828125 -27.484375 L 19.828125 -10.46875 L 59 -10.46875 L 59 0 Z M 6.28125 0 "/></g></g></g><g fill="#ffffff" fill-opacity="1"><g transform="translate(525.91468, 875.053563)"><g><path d="M 50.703125 0 L 35.703125 -24.546875 L 19.828125 -24.546875 L 19.828125 0 L 6.28125 0 L 6.28125 -64.65625 L 38.59375 -64.65625 C 46.300781 -64.65625 52.25 -62.992188 56.4375 -59.671875 C 60.625 -56.347656 62.71875 -51.582031 62.71875 -45.375 C 62.71875 -40.851562 61.429688 -36.945312 58.859375 -33.65625 C 56.296875 -30.363281 52.828125 -28.195312 48.453125 -27.15625 L 65.9375 0 Z M 49.09375 -44.828125 C 49.09375 -51.035156 45.117188 -54.140625 37.171875 -54.140625 L 19.828125 -54.140625 L 19.828125 -35.0625 L 37.53125 -35.0625 C 41.320312 -35.0625 44.195312 -35.914062 46.15625 -37.625 C 48.113281 -39.332031 49.09375 -41.734375 49.09375 -44.828125 Z M 49.09375 -44.828125 "/></g></g></g><g fill="#ffffff" fill-opacity="1"><g transform="translate(633.249103, 875.053563)"><g><path d="M 51.984375 0 L 46.25 -16.515625 L 21.609375 -16.515625 L 15.875 0 L 2.34375 0 L 25.921875 -64.65625 L 41.890625 -64.65625 L 65.390625 0 Z M 33.90625 -54.6875 L 33.625 -53.6875 C 33.320312 -52.582031 32.957031 -51.328125 32.53125 -49.921875 C 32.101562 -48.515625 29.472656 -40.773438 24.640625 -26.703125 L 43.21875 -26.703125 L 36.84375 -45.28125 L 34.875 -51.53125 Z M 33.90625 -54.6875 "/></g></g></g><g fill="#ffffff" fill-opacity="1"><g transform="translate(740.583506, 875.053563)"><g><path d="M 59.46875 -44.1875 C 59.46875 -40.03125 58.519531 -36.3125 56.625 -33.03125 C 54.726562 -29.757812 52.007812 -27.226562 48.46875 -25.4375 C 44.9375 -23.65625 40.738281 -22.765625 35.875 -22.765625 L 19.828125 -22.765625 L 19.828125 0 L 6.28125 0 L 6.28125 -64.65625 L 35.328125 -64.65625 C 43.066406 -64.65625 49.023438 -62.867188 53.203125 -59.296875 C 57.378906 -55.734375 59.46875 -50.695312 59.46875 -44.1875 Z M 45.84375 -43.953125 C 45.84375 -50.742188 41.832031 -54.140625 33.8125 -54.140625 L 19.828125 -54.140625 L 19.828125 -33.171875 L 34.1875 -33.171875 C 37.914062 -33.171875 40.789062 -34.09375 42.8125 -35.9375 C 44.832031 -37.789062 45.84375 -40.460938 45.84375 -43.953125 Z M 45.84375 -43.953125 "/></g></g></g><g fill="#ffffff" fill-opacity="1"><g transform="translate(842.732912, 875.053563)"><g><path d="M 38.125 -26.515625 L 38.125 0 L 24.640625 0 L 24.640625 -26.515625 L 1.609375 -64.65625 L 15.78125 -64.65625 L 31.296875 -37.296875 L 46.984375 -64.65625 L 61.15625 -64.65625 Z M 38.125 -26.515625 "/></g></g></g></svg>